<?xml version="1.0" encoding="UTF-8"?>
<svg width="137px" height="108px" viewBox="0 0 137 108" version="1.1" xmlns="http://www.w3.org/2000/svg" xmlns:xlink="http://www.w3.org/1999/xlink">
    <!-- Generator: Sketch 48.2 (47327) - http://www.bohemiancoding.com/sketch -->
    <title>Group 3</title>
    <desc>Created with Sketch.</desc>
    <defs></defs>
    <g id="002_1-copy" stroke="none" stroke-width="1" fill="none" fill-rule="evenodd" transform="translate(-961.000000, -436.000000)">
        <g id="Group-3" transform="translate(961.000000, 437.500000)">
            <rect id="Rectangle-28-Copy-2" fill="#EEF4FF" x="0" y="21" width="90" height="85"></rect>
            <path d="M70.9068541,3.22118105 L81.196738,3.22118105 L81.196738,67.644802 L70.9068541,67.644802 L70.9068541,38.6541725 L41.2004066,38.6541725 L41.2004066,67.644802 L31,67.644802 L31,3.22118105 L41.2004066,3.22118105 L41.2004066,28.9011522 L70.9068541,28.9011522 L70.9068541,3.22118105 Z M101.239642,12.8847242 C97.5710749,12.8847242 94.4393711,10.0214521 94.4393711,6.35288484 C94.4393711,2.86327204 97.5710749,0 101.239642,0 C104.90821,0 108.039913,2.86327204 108.039913,6.35288484 C108.039913,10.0214521 104.90821,12.8847242 101.239642,12.8847242 Z M96.1394389,21.1166313 L106.339846,21.1166313 L106.339846,67.644802 L96.1394389,67.644802 L96.1394389,21.1166313 Z M132.288248,46.0807844 L123.877387,46.0807844 L122.087842,4.74229432 L134.077793,4.74229432 L132.288248,46.0807844 Z M128.172295,53.3284418 C132.377726,53.3284418 136.13577,56.6391 136.13577,61.0234854 C136.13577,65.0499617 132.467203,68.5395745 128.172295,68.5395745 C123.877387,68.5395745 120.20882,65.0499617 120.20882,61.0234854 C120.20882,56.6391 123.966864,53.3284418 128.172295,53.3284418 Z" id="Hi!" stroke="#5320EE" stroke-width="1.5"></path>
        </g>
    </g>
</svg>