<?xml version="1.0" encoding="UTF-8"?>
<svg width="175px" height="147px" viewBox="0 0 175 147" version="1.1" xmlns="http://www.w3.org/2000/svg" xmlns:xlink="http://www.w3.org/1999/xlink">
    <!-- Generator: Sketch 48.2 (47327) - http://www.bohemiancoding.com/sketch -->
    <title>Group 3</title>
    <desc>Created with Sketch.</desc>
    <defs></defs>
    <g id="Icons-Copy" stroke="none" stroke-width="1" fill="none" fill-rule="evenodd" transform="translate(-553.000000, -220.000000)">
        <g id="Group-3" transform="translate(553.000000, 221.000000)">
            <rect id="Rectangle-28-Copy-2" fill="#EEF4FF" x="0" y="21.875" width="131.25" height="123.958333"></rect>
            <path d="M78.6141622,4.69755569 L93.6202429,4.69755569 L93.6202429,98.6486695 L78.6141622,98.6486695 L78.6141622,56.3706683 L35.2922597,56.3706683 L35.2922597,98.6486695 L20.4166667,98.6486695 L20.4166667,4.69755569 L35.2922597,4.69755569 L35.2922597,42.1475136 L78.6141622,42.1475136 L78.6141622,4.69755569 Z M122.849478,18.7902228 C117.499484,18.7902228 112.932416,14.6146177 112.932416,9.26462372 C112.932416,4.17560506 117.499484,0 122.849478,0 C128.199472,0 132.76654,4.17560506 132.76654,9.26462372 C132.76654,14.6146177 128.199472,18.7902228 122.849478,18.7902228 Z M115.411682,30.7950873 L130.287275,30.7950873 L130.287275,98.6486695 L115.411682,98.6486695 L115.411682,30.7950873 Z M168.128696,67.2011439 L155.862856,67.2011439 L153.253103,6.91584588 L170.738449,6.91584588 L168.128696,67.2011439 Z M162.126263,77.7706442 C168.259183,77.7706442 173.739665,82.5986876 173.739665,88.9925828 C173.739665,94.8645274 168.389671,99.9535461 162.126263,99.9535461 C155.862856,99.9535461 150.512862,94.8645274 150.512862,88.9925828 C150.512862,82.5986876 155.993343,77.7706442 162.126263,77.7706442 Z" id="Hi!" stroke="#5320EE" stroke-width="1.5"></path>
        </g>
    </g>
</svg>