<?xml version="1.0" encoding="UTF-8"?>
<svg width="176px" height="147px" viewBox="0 0 176 147" version="1.1" xmlns="http://www.w3.org/2000/svg" xmlns:xlink="http://www.w3.org/1999/xlink">
    <!-- Generator: Sketch 48.2 (47327) - http://www.bohemiancoding.com/sketch -->
    <title>Group 4</title>
    <desc>Created with Sketch.</desc>
    <defs></defs>
    <g id="Icons-Copy" stroke="none" stroke-width="1" fill="none" fill-rule="evenodd" transform="translate(-73.000000, -220.000000)">
        <g id="Group-4" transform="translate(73.000000, 221.000000)">
            <g id="Group">
                <rect id="Rectangle-28-Copy" fill="#EEF4FF" x="0" y="21.875" width="131.25" height="123.958333"></rect>
                <path d="M97.7083333,48.125 C97.7083333,30.0920051 111.388536,17.5 128.48879,17.5 C140.925338,17.5 150.097293,23.873731 155.693739,33.8229695 L143.257191,40.8185279 C139.526227,34.444797 134.396151,31.3356599 128.48879,31.3356599 C119.316836,31.3356599 112.476734,38.4866751 112.476734,48.125 C112.476734,57.7633249 119.316836,64.9143401 128.48879,64.9143401 C134.396151,64.9143401 139.681684,61.805203 143.412648,55.4314721 L155.693739,62.5824873 C150.097293,72.5317259 140.148054,78.75 128.48879,78.75 C111.69945,78.75 97.7083333,66.1579949 97.7083333,48.125 Z" id="Path" stroke="#621FFF" stroke-width="1.7"></path>
                <circle id="Oval-Copy" stroke="#621FFF" stroke-width="1.7" cx="127.604167" cy="47.3958333" r="47.3958333"></circle>
            </g>
        </g>
    </g>
</svg>