<?xml version="1.0" encoding="UTF-8"?>
<svg width="117px" height="110px" viewBox="0 0 117 110" version="1.1" xmlns="http://www.w3.org/2000/svg" xmlns:xlink="http://www.w3.org/1999/xlink">
    <!-- Generator: Sketch 48.2 (47327) - http://www.bohemiancoding.com/sketch -->
    <title>Group 4</title>
    <desc>Created with Sketch.</desc>
    <defs></defs>
    <g id="002_1-copy" stroke="none" stroke-width="1" fill="none" fill-rule="evenodd" transform="translate(-327.000000, -432.000000)">
        <g id="Group-4" transform="translate(327.000000, 433.000000)">
            <g id="Group">
                <path d="M112.98,85.8748663 C110.777166,85.8748663 109,84.0977006 109,81.9374332 C109,79.7771658 110.777166,78 112.98,78 C115.161551,78 116.96,79.7771658 116.96,81.9374332 C116.96,84.0977006 115.161551,85.8748663 112.98,85.8748663 Z M112.98,85.1299466 C114.714599,85.1299466 116.172513,83.7358824 116.172513,81.9374332 C116.172513,80.1602674 114.714599,78.7342781 112.98,78.7342781 C111.192193,78.7342781 109.787487,80.1709091 109.787487,81.9374332 C109.787487,83.7252407 111.202834,85.1299466 112.98,85.1299466 Z M110.99,81.8842246 C110.99,80.6497861 111.926471,79.7878075 113.097059,79.7878075 C113.948396,79.7878075 114.576257,80.2241177 114.959358,80.9051872 L114.108021,81.3840642 C113.85262,80.947754 113.501444,80.7349198 113.097059,80.7349198 C112.469198,80.7349198 112.000963,81.2244385 112.000963,81.8842246 C112.000963,82.5440107 112.469198,83.0335294 113.097059,83.0335294 C113.501444,83.0335294 113.863262,82.8206952 114.118663,82.384385 L114.959358,82.8739038 C114.576257,83.5549733 113.895187,83.9806417 113.097059,83.9806417 C111.947754,83.9806417 110.99,83.1186631 110.99,81.8842246 Z" id="©" fill="#5320EE"></path>
                <rect id="Rectangle-28-Copy" fill="#EEF4FF" x="0" y="24" width="90" height="85"></rect>
                <path d="M17.4876195,92.950478 L17.4876195,99.2786329 L15,99.2786329 L15,87.9315966 L17.4876195,87.9315966 L17.4876195,89.5027247 C18.120435,88.3898423 19.3206023,87.7133843 20.7608031,87.7133843 C22.3755736,87.7133843 23.5320985,88.3898423 24.0994503,89.7645793 C24.7322658,88.4989484 26.0633604,87.7133843 27.6999522,87.7133843 C30.2093929,87.7133843 31.58413,89.24087 31.58413,92.3176625 L31.58413,99.2786329 L29.0965105,99.2786329 L29.0965105,92.6231597 C29.0965105,90.702892 28.3545889,89.8082218 27.0671367,89.8082218 C25.4305449,89.8082218 24.5358748,91.2266013 24.5358748,92.950478 L24.5358748,99.2786329 L22.0482553,99.2786329 L22.0482553,92.6231597 C22.0482553,90.702892 21.3063337,89.8082218 20.0188815,89.8082218 C18.3822897,89.8082218 17.4876195,91.2266013 17.4876195,92.950478 Z M38.021391,103.773805 L35.577414,103.773805 L37.9122849,98.4494264 L33.5480402,87.9315966 L36.0793021,87.9315966 L39.1779159,95.6344885 L42.5602055,87.9315966 L45.047825,87.9315966 L38.021391,103.773805 Z M49.3902486,97.9693595 L49.3902486,99.2786329 L46.9026291,99.2786329 L46.9026291,83 L49.3902486,83 L49.3902486,89.24087 C50.2412763,88.2152725 51.3978011,87.7133843 52.8161807,87.7133843 C55.8929732,87.7133843 58.3369503,90.1137189 58.3369503,93.6051147 C58.3369503,97.0965105 55.8929732,99.4968451 52.8161807,99.4968451 C51.3978011,99.4968451 50.2412763,99.0167782 49.3902486,97.9693595 Z M52.554326,97.336544 C54.4964149,97.336544 55.9147945,95.7654159 55.9147945,93.6051147 C55.9147945,91.4448136 54.4964149,89.8736855 52.554326,89.8736855 C50.6122371,89.8736855 49.2156788,91.4448136 49.2156788,93.6051147 C49.2156788,95.7654159 50.6122371,97.336544 52.554326,97.336544 Z M63.6831501,87.9315966 L63.6831501,89.7864006 C64.163217,88.6516969 65.3197419,87.778848 66.7381214,87.778848 C67.0217973,87.778848 67.3491157,87.8006692 67.676434,87.8443117 L67.676434,90.2882887 C67.2618308,90.222825 66.9126912,90.2010038 66.6071941,90.2010038 C64.2723231,90.2010038 63.6831501,91.488456 63.6831501,93.2123327 L63.6831501,99.2786329 L61.1955306,99.2786329 L61.1955306,87.9315966 L63.6831501,87.9315966 Z M73.4590583,97.6856836 C75.379326,97.6856836 76.3176386,96.3982314 76.3176386,94.8707457 L76.3176386,94.7616396 C75.968499,94.6307122 75.182935,94.4125 74.1355163,94.4125 C72.1716061,94.4125 71.2987572,95.1980641 71.2987572,96.1581979 C71.2987572,97.1619742 72.2370698,97.6856836 73.4590583,97.6856836 Z M76.4267447,99.2786329 L76.3612811,97.925717 C75.5538958,99.0604207 74.2882648,99.5623088 72.8044216,99.5623088 C70.5350143,99.5623088 68.8547801,98.3839627 68.8547801,96.2454828 C68.8547801,93.7796845 71.1023662,92.6449809 73.9609465,92.6449809 C75.1611138,92.6449809 75.968499,92.8631931 76.3176386,92.9941205 L76.3176386,91.8157744 C76.3176386,90.3973948 75.3138623,89.7209369 74.0482314,89.7209369 C72.5643881,89.7209369 71.7351816,90.6156071 71.4515057,91.5975621 L69.2693834,90.8556405 C69.814914,89.1317639 71.3642208,87.7133843 74.113695,87.7133843 C76.7758843,87.7133843 78.8052581,89.044479 78.8052581,92.0339866 L78.8052581,99.2786329 L76.4267447,99.2786329 Z M84.7624522,93.0595841 L84.7624522,99.2786329 L82.2748327,99.2786329 L82.2748327,87.9315966 L84.7624522,87.9315966 L84.7624522,89.5463671 C85.4389101,88.4116635 86.7263623,87.7133843 88.253848,87.7133843 C90.8069312,87.7133843 92.2471319,89.2845124 92.2471319,92.4267686 L92.2471319,99.2786329 L89.7595124,99.2786329 L89.7595124,92.7322658 C89.7595124,90.7465344 88.9303059,89.8082218 87.5119264,89.8082218 C85.7444073,89.8082218 84.7624522,91.2702438 84.7624522,93.0595841 Z M100.648303,97.336544 C102.590392,97.336544 103.98695,95.7654159 103.98695,93.6051147 C103.98695,91.4448136 102.590392,89.8736855 100.648303,89.8736855 C98.7062141,89.8736855 97.2878346,91.4448136 97.2878346,93.6051147 C97.2878346,95.7654159 98.7062141,97.336544 100.648303,97.336544 Z M103.81238,97.9693595 C102.961353,99.0167782 101.804828,99.4968451 100.386448,99.4968451 C97.3096558,99.4968451 94.8656788,97.0965105 94.8656788,93.6051147 C94.8656788,90.1137189 97.3096558,87.7133843 100.386448,87.7133843 C101.804828,87.7133843 102.961353,88.2152725 103.81238,89.24087 L103.81238,83 L106.3,83 L106.3,99.2786329 L103.81238,99.2786329 L103.81238,97.9693595 Z" id="mybrand" fill="#5320EE"></path>
                <circle id="Oval-Copy" stroke="#621FFF" stroke-width="1.7" cx="80.5" cy="33.5" r="33.5"></circle>
            </g>
        </g>
    </g>
</svg>