<svg xmlns="http://www.w3.org/2000/svg" viewBox="0 0 12 12.2"><defs><style>.cls-1{fill:#501286;}</style></defs><title>Fichier 2</title><g id="Calque_2" data-name="Calque 2"><g id="Calque_2-2" data-name="Calque 2"><path class="cls-1" d="M.88,5.14v6.73a.33.33,0,0,0,.33.33h.35a.33.33,0,0,0,.33-.33V5.14Z"/><path class="cls-1" d="M1.89.77V.33A.33.33,0,0,0,1.56,0H1.21A.33.33,0,0,0,.88.33V.77Z"/><path class="cls-1" d="M2.52,1.43H.25A.24.24,0,0,0,0,1.64V4.27a.23.23,0,0,0,.25.21H2.52a.23.23,0,0,0,.25-.21V1.64A.24.24,0,0,0,2.52,1.43Z"/><path class="cls-1" d="M5.51,10.32v1.55a.33.33,0,0,0,.33.33h.35a.33.33,0,0,0,.33-.33V10.32Z"/><path class="cls-1" d="M6.52,6V.33A.33.33,0,0,0,6.19,0H5.84a.33.33,0,0,0-.33.33V6Z"/><path class="cls-1" d="M7.15,6.62H4.88a.23.23,0,0,0-.25.2V9.45a.23.23,0,0,0,.25.21H7.15a.23.23,0,0,0,.25-.21V6.82A.23.23,0,0,0,7.15,6.62Z"/><path class="cls-1" d="M11.15,2.6V.33A.33.33,0,0,0,10.82,0h-.34a.33.33,0,0,0-.33.33V2.6Z"/><path class="cls-1" d="M10.15,7v4.9a.33.33,0,0,0,.33.33h.34a.33.33,0,0,0,.33-.33V7Z"/><path class="cls-1" d="M11.75,3.27H9.48a.23.23,0,0,0-.25.2V6.1a.23.23,0,0,0,.25.21h2.27A.23.23,0,0,0,12,6.1V3.47A.23.23,0,0,0,11.75,3.27Z"/></g></g></svg>