<?xml version="1.0" encoding="UTF-8"?>
<svg width="25px" height="25px" viewBox="0 0 25 25" version="1.1" xmlns="http://www.w3.org/2000/svg" xmlns:xlink="http://www.w3.org/1999/xlink">
    <!-- Generator: Sketch 48.2 (47327) - http://www.bohemiancoding.com/sketch -->
    <defs></defs>
    <g id="iPad-Pro" stroke="none" stroke-width="1" fill="none" fill-rule="evenodd" transform="translate(-912.000000, -5359.000000)">
        <g id="Group" transform="translate(874.000000, 5359.000000)" fill="#FEFEFE">
            <g id="Page-1" transform="translate(38.000000, 0.000000)">
                <path d="M7.09606487,1.81891176 C4.18653838,1.81891176 1.81951259,4.16801267 1.81951259,7.05545456 L1.81951259,17.6243745 C1.81951259,20.5118164 4.18653838,22.8609688 7.09606487,22.8609688 L17.0763655,22.8609688 C19.985892,22.8609688 22.3529178,20.5118164 22.3529178,17.6243745 L22.3529178,7.05545456 C22.3529178,4.16801267 19.985892,1.81891176 17.0763655,1.81891176 L7.09606487,1.81891176 Z M17.0763655,24.6666821 L7.09606487,24.6666821 C3.18326233,24.6666821 2.07556462e-05,21.5074949 2.07556462e-05,17.6243745 L2.07556462e-05,7.05545456 C2.07556462e-05,3.17233417 3.18326233,0.013198469 7.09606487,0.013198469 L17.0763655,0.013198469 C20.989168,0.013198469 24.1724096,3.17233417 24.1724096,7.05545456 L24.1724096,17.6243745 C24.1724096,21.5074949 20.989168,24.6666821 17.0763655,24.6666821 Z" id="Fill-1"></path>
                <path d="M11.7331873,7.94689987 C10.6714249,7.94689987 9.66131502,8.36211164 8.87714602,9.12371983 C8.02555044,9.95079282 7.53712017,11.1071486 7.53712017,12.2961852 C7.53712017,14.6931762 9.48728435,16.6433056 11.8843816,16.6433056 C14.2686945,16.6433056 16.1783409,14.7231766 16.2319523,12.2721127 C16.2589126,11.0358074 15.903325,9.98754589 15.2035423,9.24052552 C14.4512309,8.43737038 13.2923495,7.99066334 11.8522148,7.94865247 C11.8124702,7.94746688 11.7727772,7.94689987 11.7331873,7.94689987 M11.8843816,18.852459 C8.26912121,18.852459 5.32786885,15.911337 5.32786885,12.2961852 C5.32786885,10.5135839 6.06048849,8.77964303 7.33788185,7.53900778 C8.58331461,6.32940387 10.209491,5.69047774 11.9165999,5.74042687 C13.9581096,5.79996375 15.6522796,6.48801425 16.8159551,7.73024746 C17.9186992,8.9074798 18.4805357,10.4947177 18.4406365,12.3203092 C18.4024385,14.0679616 17.7129656,15.70453 16.4991842,16.9286187 C15.2689585,18.1692024 13.6300494,18.852459 11.8843816,18.852459" id="Fill-4"></path>
                <path d="M20.4918033,5.53278689 C20.4918033,6.32497313 19.8496008,6.96721311 19.0573529,6.96721311 C18.2651533,6.96721311 17.6229508,6.32497313 17.6229508,5.53278689 C17.6229508,4.74060064 18.2651533,4.09836066 19.0573529,4.09836066 C19.8496008,4.09836066 20.4918033,4.74060064 20.4918033,5.53278689" id="Fill-6"></path>
            </g>
        </g>
    </g>
</svg>