<svg xmlns="http://www.w3.org/2000/svg" viewBox="0 0 12 12.1"><defs><style>.cls-1{opacity:0.6;}.cls-2{fill:#501286;}</style></defs><title>Fichier 1</title><g id="Calque_2" data-name="Calque 2"><g id="Calque_2-2" data-name="Calque 2"><g class="cls-1"><path class="cls-2" d="M11.92,2,10.08.08a.28.28,0,0,0-.39,0L2.23,7.46,0,11.69A.31.31,0,0,0,.08,12a.32.32,0,0,0,.2.08.28.28,0,0,0,.13,0l4.13-2.3,0,0,7.33-7.33A.27.27,0,0,0,11.92,2ZM9.88.67l.77.8L4.06,8l-.77-.77ZM4.22,9.3l-1.84,1a1,1,0,0,1-.65-.72l.93-1.79.45-.45L4.63,8.88Zm.59-.59-.58-.58,6.59-6.49.51.55Z"/></g></g></g></svg>