<?xml version="1.0" encoding="utf-8"?>
<!-- Generator: Adobe Illustrator 17.0.0, SVG Export Plug-In . SVG Version: 6.00 Build 0)  -->
<!DOCTYPE svg PUBLIC "-//W3C//DTD SVG 1.1//EN" "http://www.w3.org/Graphics/SVG/1.1/DTD/svg11.dtd">
<svg version="1.1" id="Layer_1" xmlns="http://www.w3.org/2000/svg" xmlns:xlink="http://www.w3.org/1999/xlink" x="0px" y="0px"
	 width="530.199px" height="248.025px" viewBox="0 0 530.199 248.025" enable-background="new 0 0 530.199 248.025"
	 xml:space="preserve">
<g id="Checkout" transform="translate(-405.000000, -436.000000)">
	<g id="otf" transform="translate(405.000000, 436.000000)">
		<g id="Group-2">
			<g id="Fill-1">
				<polygon fill="#FFFFFF" points="0,3.903 0,236.903 177,236.903 177,70.096 110.625,3.903 				"/>
				<polygon id="Fill-2" points="110.625,3.903 110.625,70.096 177,70.096 				"/>
			</g>
		</g>
	</g>
</g>
<path id="_x2E_OTF" fill="#F3F3F3" d="M126.453,221.031c0.932,0,1.764,0.731,1.764,1.7c0,0.89-0.813,1.661-1.764,1.661
	s-1.764-0.771-1.764-1.661C124.688,221.762,125.521,221.031,126.453,221.031z M137.613,224.392c-3.687,0-7.097-3.381-7.097-7.315
	c0-3.934,2.815-7.315,7.097-7.315c4.104,0,7.077,3.381,7.077,7.315C144.691,221.011,141.301,224.392,137.613,224.392z
	 M137.613,222.138c2.419,0,4.678-2.372,4.678-5.061c0-2.689-1.903-5.061-4.678-5.061c-2.795,0-4.659,2.372-4.659,5.061
	C132.955,219.766,135.215,222.138,137.613,222.138z M156.744,209.96v2.056h-4.203v12.178h-2.26v-12.178h-4.223v-2.056H156.744z
	 M168.678,212.115h-7.632v3.697h6.463v2.155h-6.463v6.227h-2.26V209.96h9.892V212.115z"/>
<rect x="219.424" y="12.199" width="310.775" height="235.826"/>
<rect x="207.224" y="0" fill="#FFFFFF" width="310.775" height="235.826"/>
<g>
	<g>
		<path fill="#5425E7" d="M58.724,146.229H46.943l0.059-0.236v-0.059l10.604-43.711c0-0.118,0.059-0.236,0.059-0.236h17.084
			l10.721,43.946v0.059l0.059,0.236H73.157l-0.059-0.295l-1.355-8.365H60.315l-1.532,8.365
			C58.724,145.993,58.724,146.17,58.724,146.229z M62.023,128.261h8.129l-3.888-23.387L62.023,128.261z"/>
		<path fill="#5425E7" d="M108.856,114.948c11.546,0,17.201,5.066,17.201,12.724v18.556h-10.604v-9.779
			c-1.355,6.303-6.185,10.368-13.844,10.368s-11.723-3.476-11.723-8.895c0-5.655,5.479-9.367,16.966-9.425
			c5.125-0.059,8.542-0.236,8.542-2.533c0-2.003-2.18-3.358-6.185-3.358c-4.477,0-7.481,1.708-7.481,4.3H90.83
			C90.83,119.72,98.017,114.948,108.856,114.948z M107.796,134.506c-4.536,0-7.246,1.119-7.246,3.122
			c0,1.591,1.885,2.651,5.479,2.651c5.832,0,9.131-2.71,9.425-6.892v-0.059C113.51,134.329,110.859,134.506,107.796,134.506z"/>
	</g>
</g>
<rect x="226.813" y="0" fill="#F3F3F3" width="271.094" height="175.724"/>
<rect x="241.876" y="31.912" fill="none" width="181.716" height="114.905"/>
<text transform="matrix(1 0 0 1 241.8755 55.3814)"><tspan x="0" y="0" fill="#5425E7" font-family="'WideGrotesk-Bold'" font-size="32">My Font</tspan><tspan x="0" y="38.4" fill="#5425E7" font-family="'WideGrotesk-Bold'" font-size="32">Name </tspan><tspan x="0" y="76.8" fill="#5425E7" font-family="'WideGrotesk-Bold'" font-size="32">Regular</tspan></text>
</svg>
