<svg xmlns="http://www.w3.org/2000/svg" width="125" height="165" viewBox="0 0 125 165">
    <g fill="none" fill-rule="evenodd">
        <path fill="#FFF" d="M0 0v165h125V46.875L78.125 0z"/>
        <path fill="#000" d="M78.125 0v46.875H125z"/>
        <path fill="#5F1FFC" d="M46.344 81.568L40.312 96.44h12.064l-6.032-14.872zm11.804 29.224l-3.692-9.204H38.232l-3.692 9.204h-6.344L43.12 73.56h6.448l14.924 37.232h-6.344zm21.008-3.588c4.576 0 6.812-3.068 6.812-6.708v-.26c-.832-.312-2.704-.832-5.2-.832-4.68 0-6.76 1.872-6.76 4.16 0 2.392 2.236 3.64 5.148 3.64zM86.228 111l-.156-3.224c-1.924 2.704-4.94 3.9-8.476 3.9-5.408 0-9.412-2.808-9.412-7.904 0-5.876 5.356-8.58 12.168-8.58 2.86 0 4.784.52 5.616.832v-2.808c0-3.38-2.392-4.992-5.408-4.992-3.536 0-5.512 2.132-6.188 4.472l-5.2-1.768c1.3-4.108 4.992-7.488 11.544-7.488 6.344 0 11.18 3.172 11.18 10.296V111h-5.668zM87.184 153.76c.658 0 1.246.518 1.246 1.204 0 .63-.574 1.176-1.246 1.176s-1.246-.546-1.246-1.176c0-.686.588-1.204 1.246-1.204zm7.882 2.38c-2.604 0-5.012-2.394-5.012-5.18 0-2.786 1.988-5.18 5.012-5.18 2.898 0 4.998 2.394 4.998 5.18 0 2.786-2.394 5.18-4.998 5.18zm0-1.596c1.708 0 3.304-1.68 3.304-3.584 0-1.904-1.344-3.584-3.304-3.584-1.974 0-3.29 1.68-3.29 3.584 0 1.904 1.596 3.584 3.29 3.584zm13.51-8.624v1.456h-2.968V156h-1.596v-8.624h-2.982v-1.456h7.546zm8.428 1.526h-5.39v2.618h4.564v1.526h-4.564V156h-1.596v-10.08h6.986v1.526z"/>
    </g>
</svg>
