<svg xmlns="http://www.w3.org/2000/svg" width="263" height="343" viewBox="0 0 263 343">
    <g fill="none" fill-rule="evenodd">
        <path fill="#111" d="M13 13h250v330H13z"/>
        <path fill="#FFF" d="M0 0h250v330H0z"/>
        <path fill="#5F1FFC" class="letters" d="M88.64 128.08L74.72 162.4h27.84l-13.92-34.32zm27.24 67.44l-8.52-21.24H69.92l-8.52 21.24H46.76L81.2 109.6h14.88l34.44 85.92h-14.64zm48.48-8.28c10.56 0 15.72-7.08 15.72-15.48v-.6c-1.92-.72-6.24-1.92-12-1.92-10.8 0-15.6 4.32-15.6 9.6 0 5.52 5.16 8.4 11.88 8.4zm16.32 8.76l-.36-7.44c-4.44 6.24-11.4 9-19.56 9-12.48 0-21.72-6.48-21.72-18.24 0-13.56 12.36-19.8 28.08-19.8 6.6 0 11.04 1.2 12.96 1.92v-6.48c0-7.8-5.52-11.52-12.48-11.52-8.16 0-12.72 4.92-14.28 10.32l-12-4.08c3-9.48 11.52-17.28 26.64-17.28 14.64 0 25.8 7.32 25.8 23.76V196h-13.08z"/>
    </g>
</svg>
