<svg xmlns="http://www.w3.org/2000/svg" viewBox="0 0 128.05 26.67"><defs><style>.cls-1{fill:#ff6358;}</style></defs><title>logo</title><g id="Calque_2" data-name="Calque 2"><g id="Calque_1-2" data-name="Calque 1"><path class="cls-1" d="M0,11V.54H6.26V11c0,2.09.94,3.24,2.67,3.24s2.66-1.15,2.66-3.24V.54h6.26V11c0,5.9-3.16,8.82-8.89,8.82S0,16.88,0,11Z"/><path class="cls-1" d="M28.51,19.26H22.25V.54h6.26v2.7A6.47,6.47,0,0,1,34.41,0c4.22,0,6.45,2.7,6.45,8.14V19.26H34.59V8.82c0-2.2-1-3.2-2.62-3.2a3.42,3.42,0,0,0-3.46,3.74Z"/><path class="cls-1" d="M44.39,19.26V13.89h5.36V5.54H45.18V.18H56V13.89h4.18v5.37Z"/><path class="cls-1" d="M70.56,19.8c-5.08,0-9.11-4-9.11-9.9s4-9.9,9.11-9.9a6.88,6.88,0,0,1,5.65,2.52v-2h6.26V26.67H76.21V17.28A6.79,6.79,0,0,1,70.56,19.8ZM76.5,9.9a4.45,4.45,0,1,0-8.89,0,4.45,4.45,0,1,0,8.89,0Z"/><path class="cls-1" d="M86.9,11V.54h6.27V11c0,2.09.93,3.24,2.66,3.24s2.66-1.15,2.66-3.24V.54h6.27V11c0,5.9-3.17,8.82-8.89,8.82S86.9,16.88,86.9,11Z"/><path class="cls-1" d="M107.71,9.83C107.71,4,112.21,0,118.29,0s9.76,3.89,9.76,9.65v1.83H113.94a4.15,4.15,0,0,0,4.39,3.31,4.81,4.81,0,0,0,4.32-2.34l4.61,2.7c-.69,1.41-3.32,4.65-8.9,4.65C112,19.8,107.71,15.66,107.71,9.83ZM114,7.52h7.77a3.38,3.38,0,0,0-3.63-2.91A4,4,0,0,0,114,7.52Z"/></g></g></svg>