<svg xmlns="http://www.w3.org/2000/svg" viewBox="0 0 345.99 87.84"><defs><style>.cls-1{fill:#10051e;}.cls-2{fill:#591099;}</style></defs><title>Fichier 1</title><g id="Calque_2" data-name="Calque 2"><g id="Calque_1-2" data-name="Calque 1"><path class="cls-1" d="M55.7,48.58c0,19-7.85,26.29-27.94,26.29C7.85,74.87,0,67.57,0,48.58V0H19.54V52.05c0,4,2.37,5.66,8.22,5.66S36,56.06,36,52.05V0H55.52C55.7,0,55.7,13.7,55.7,48.58Z"/><path class="cls-1" d="M93.87,40.46c0-5.67-1.65-6.86-5.85-6.86s-5.84,2.11-5.84,10V73.05H63.55V18.26H82.18V22c2.73-3.21,6.67-4.65,12-4.65,13,0,18.08,5.66,18.08,19.9v35.8H93.87Z"/><path class="cls-1" d="M119.07,0H139V12.24h-19.9Zm.54,18.26h18.63V73.05H119.61Z"/><path class="cls-1" d="M175.68,18.26h18.44V87.84H175.68V67.66c-2.58,4.4-6.77,6.3-13,6.3-12.42,0-17.16-4.93-17.16-17.71,0-7.31-.19-12.79-.19-19.91,0-13.7,4.93-19,17.35-19,6.09,0,10.31,1.49,13,4.91Zm0,17.35c0-1.64-1.65-2.19-6.21-2.19-3.84,0-5.48.55-5.48,2.19,0,5.85-.18,10.41-.18,16.44,0,4,1.46,5.66,5.48,5.66,4.56,0,6.39-1.65,6.39-5.66Z"/><path class="cls-1" d="M231.56,18.26H250V73.05H231.56V67.66c-2.57,4.4-6.77,6.3-13,6.3-12.42,0-17.16-4.93-17.16-17.71l-.19-38h18.63l-.18,33.79c0,4,1.46,5.66,5.48,5.66,4.56,0,6.39-1.65,6.39-5.66Z"/><path class="cls-1" d="M305.88,54.6c0,13.88-6.75,19.36-24.28,19.36-17.72,0-24.48-5.3-24.48-19V36.34c0-13.7,6.76-19,24.48-19,17.53,0,24.28,5.29,24.28,19V46.57H275.75v9.31c0,1.46,1.65,2,5.85,2s5.84-.55,5.84-2V49.49h18.44ZM287.44,40.91V36.34c0-2.19-1.64-2.92-5.84-2.92s-5.85.55-5.85,2.19v5.3Z"/><path class="cls-2" d="M318.23,60.08c0-10,3.84-13.88,13.88-13.88S346,50,346,60.08,342.16,74,332.11,74,318.23,70.12,318.23,60.08Z"/></g></g></svg>