<svg xmlns="http://www.w3.org/2000/svg" width="761" height="644" viewBox="0 0 761 644">
    <g fill="none" fill-rule="evenodd">
        <path fill="#5F1FFC" d="M41 43h720v492H41z"/>
        <path fill="#EAF0F9" d="M0 271h457v317H0z"/>
        <path fill="#000" d="M238 14h85.327L404 103.246V234H238z"/>
        <path fill="#FFF" d="M250.834 0v221.227H418.43V62.848L355.582 0z"/>
        <path fill="#000" d="M356.308 0v62.848h62.848z"/>
        <path fill="#5F1FFC" d="M309.311 109.704l-8.087 19.94h16.175l-8.088-19.94zm15.827 39.183l-4.95-12.34h-21.753l-4.95 12.34h-8.506l20.01-49.92h8.645l20.01 49.92h-8.506zm28.167-4.81c6.135 0 9.133-4.114 9.133-8.995v-.348c-1.116-.418-3.625-1.116-6.972-1.116-6.275 0-9.064 2.51-9.064 5.578 0 3.207 2.998 4.88 6.903 4.88zm9.482 5.089l-.21-4.323c-2.58 3.626-6.623 5.23-11.364 5.23-7.25 0-12.62-3.766-12.62-10.598 0-7.879 7.182-11.504 16.315-11.504 3.835 0 6.414.697 7.53 1.116v-3.765c0-4.532-3.207-6.693-7.25-6.693-4.742 0-7.391 2.858-8.298 5.995l-6.972-2.37c1.743-5.508 6.694-10.04 15.478-10.04 8.506 0 14.99 4.253 14.99 13.805v23.147h-7.6z"/>
        <path fill="#000" d="M197 338h232v306H197z"/>
        <path fill="#FFF" d="M185 326h232v306H185z"/>
        <path fill="#5F1FFC" d="M266.732 450.091l-12.874 31.74h25.748l-12.874-31.74zm25.193 62.371l-7.88-19.643H249.42l-7.88 19.643H228L259.851 433h13.762l31.851 79.462h-13.54zm44.836-7.658c9.766 0 14.539-6.547 14.539-14.316v-.555c-1.776-.666-5.771-1.776-11.099-1.776-9.988 0-14.427 3.996-14.427 8.879 0 5.105 4.772 7.768 10.987 7.768zm15.093 8.102l-.333-6.88c-4.106 5.77-10.543 8.323-18.09 8.323-11.541 0-20.087-5.993-20.087-16.87 0-12.54 11.431-18.311 25.97-18.311 6.104 0 10.21 1.11 11.986 1.776v-5.993c0-7.214-5.106-10.654-11.542-10.654-7.547 0-11.764 4.55-13.207 9.544l-11.098-3.773c2.774-8.768 10.654-15.982 24.637-15.982 13.54 0 23.861 6.77 23.861 21.974v36.846h-12.097z"/>
        <g>
            <path fill="#000" d="M500.23 177.299H698V438H500.23z"/>
            <path fill="#FFF" d="M490 167.076h197.77v260.701H490z"/>
            <path fill="#000" d="M602.525 156h10.23v23.003h-10.23zM541.148 156h10.23v23.003h-10.23zM663.902 156h10.23v23.003h-10.23zM520.689 156h10.23v23.003h-10.23zM643.443 156h10.23v23.003h-10.23zM582.066 156h10.23v23.003h-10.23zM500.23 156h10.23v23.003h-10.23zM622.984 156h10.23v23.003h-10.23zM561.607 156h10.23v23.003h-10.23z"/>
            <path stroke="#E7E7E7" stroke-linecap="square" stroke-width="16" d="M516 278h134.59M516 351h134.59M516 315h120.574M516 241h95.185M516 388h95.185"/>
        </g>
    </g>
</svg>
