<?xml version="1.0" encoding="UTF-8"?>
<svg width="703px" height="546px" viewBox="0 0 703 546" version="1.1" xmlns="http://www.w3.org/2000/svg" xmlns:xlink="http://www.w3.org/1999/xlink">
    <!-- Generator: Sketch 48.2 (47327) - http://www.bohemiancoding.com/sketch -->
    <title>Ilustration 01 </title>
    <desc>Created with Sketch.</desc>
    <defs></defs>
    <g id="Page-1" stroke="none" stroke-width="1" fill="none" fill-rule="evenodd">
        <g id="Ilustration-01-">
            <rect id="Rectangle-12" fill="#5F1FFC" x="180" y="0" width="443" height="515"></rect>
            <rect id="Rectangle-12-Copy" fill="#EAF0F9" x="0" y="47" width="423" height="499"></rect>
            <g id="Group" stroke-width="1" transform="translate(95.000000, 93.000000)">
                <rect id="Rectangle-3-Copy-2" fill="#FFFFFF" x="0" y="12" width="608" height="365"></rect>
                <path d="M88.032,85.84 L91.504,85.84 L85.484,106 L82.04,106 L77.924,91.468 C76.524,96.284 75.096,101.212 73.752,106 L70.308,106 L64.316,85.84 L67.76,85.84 L72.156,100.428 C73.388,96.144 75.152,90.096 76.356,85.84 L79.436,85.84 L83.664,100.428 C84.98,96.004 86.744,90.236 88.032,85.84 Z M101.584,106.28 C97.104,106.28 94.08,103.172 94.08,98.664 C94.08,94.156 97.216,91.16 101.556,91.16 C105.868,91.16 108.388,94.072 108.388,98.384 L108.388,99.448 L97.132,99.448 C97.412,102.164 99.148,103.452 101.528,103.452 C103.656,103.452 104.804,102.444 105.588,101.1 L107.996,102.472 C107.212,103.872 105.476,106.28 101.584,106.28 Z M101.444,93.792 C99.456,93.792 97.72,94.856 97.216,97.18 L105.252,97.18 C105,94.968 103.544,93.792 101.444,93.792 Z M111.944,85.112 L115.136,85.112 L115.136,106 L111.944,106 L111.944,85.112 Z M118.776,98.72 C118.776,94.268 122.136,91.16 126.28,91.16 C129.36,91.16 131.544,92.756 132.944,95.192 L130.312,96.648 C129.36,94.94 127.96,94.044 126.252,94.044 C123.788,94.044 121.856,96.004 121.856,98.72 C121.856,101.436 123.788,103.424 126.252,103.424 C127.932,103.424 129.388,102.528 130.34,100.792 L132.916,102.276 C131.516,104.74 129.192,106.28 126.28,106.28 C122.192,106.28 118.776,103.172 118.776,98.72 Z M135.268,98.72 C135.268,94.324 138.404,91.16 142.716,91.16 C147.028,91.16 150.192,94.352 150.192,98.72 C150.192,103.088 147.028,106.28 142.716,106.28 C138.404,106.28 135.268,103.116 135.268,98.72 Z M138.32,98.72 C138.32,101.576 140.196,103.48 142.716,103.48 C145.236,103.48 147.112,101.576 147.112,98.72 C147.112,95.864 145.236,93.96 142.716,93.96 C140.196,93.96 138.32,95.864 138.32,98.72 Z M157.024,97.88 L157.024,106 L153.832,106 L153.832,91.44 L157.024,91.44 L157.024,93.456 C157.836,92.028 159.376,91.16 161.224,91.16 C163.296,91.16 164.78,92.028 165.508,93.792 C166.32,92.168 168.028,91.16 170.128,91.16 C173.348,91.16 175.112,93.12 175.112,97.068 L175.112,106 L171.92,106 L171.92,97.46 C171.92,94.996 170.968,93.848 169.316,93.848 C167.216,93.848 166.068,95.668 166.068,97.88 L166.068,106 L162.876,106 L162.876,97.46 C162.876,94.996 161.924,93.848 160.272,93.848 C158.172,93.848 157.024,95.668 157.024,97.88 Z M185.976,106.28 C181.496,106.28 178.472,103.172 178.472,98.664 C178.472,94.156 181.608,91.16 185.948,91.16 C190.26,91.16 192.78,94.072 192.78,98.384 L192.78,99.448 L181.524,99.448 C181.804,102.164 183.54,103.452 185.92,103.452 C188.048,103.452 189.196,102.444 189.98,101.1 L192.388,102.472 C191.604,103.872 189.868,106.28 185.976,106.28 Z M185.836,93.792 C183.848,93.792 182.112,94.856 181.608,97.18 L189.644,97.18 C189.392,94.968 187.936,93.792 185.836,93.792 Z M208.796,106 C205.772,106 204.876,104.88 204.876,101.072 L204.876,93.904 L202.272,93.904 L202.272,91.44 L204.876,91.44 L204.876,87.576 L208.068,87.576 L208.068,91.44 L211.932,91.44 L211.932,93.904 L208.068,93.904 L208.068,102.024 C208.068,102.92 208.404,103.312 209.104,103.312 C209.72,103.312 210.7,103.284 211.652,103.2 L211.652,105.804 C210.588,105.944 210,106 208.796,106 Z M213.668,98.72 C213.668,94.324 216.804,91.16 221.116,91.16 C225.428,91.16 228.592,94.352 228.592,98.72 C228.592,103.088 225.428,106.28 221.116,106.28 C216.804,106.28 213.668,103.116 213.668,98.72 Z M216.72,98.72 C216.72,101.576 218.596,103.48 221.116,103.48 C223.636,103.48 225.512,101.576 225.512,98.72 C225.512,95.864 223.636,93.96 221.116,93.96 C218.596,93.96 216.72,95.864 216.72,98.72 Z M252,85.84 L255.192,85.84 L255.192,98.692 C255.192,103.62 252.196,106.308 247.436,106.308 C242.648,106.308 239.792,103.62 239.792,98.692 L239.792,85.84 L242.984,85.84 L242.984,98.664 C242.984,101.156 244.244,103.536 247.436,103.508 C250.6,103.536 252,101.156 252,98.664 L252,85.84 Z M262.808,98.02 L262.808,106 L259.616,106 L259.616,91.44 L262.808,91.44 L262.808,93.512 C263.676,92.056 265.328,91.16 267.288,91.16 C270.564,91.16 272.412,93.176 272.412,97.208 L272.412,106 L269.22,106 L269.22,97.6 C269.22,95.052 268.156,93.848 266.336,93.848 C264.068,93.848 262.808,95.724 262.808,98.02 Z M278.488,88.864 C277.34,88.864 276.36,87.968 276.36,86.82 C276.36,85.728 277.34,84.832 278.488,84.832 C279.636,84.832 280.616,85.728 280.616,86.82 C280.616,87.968 279.636,88.864 278.488,88.864 Z M276.892,91.44 L280.084,91.44 L280.084,106 L276.892,106 L276.892,91.44 Z M295.204,104.32 C294.112,105.664 292.628,106.28 290.808,106.28 C286.86,106.28 283.724,103.2 283.724,98.72 C283.724,94.24 286.86,91.16 290.808,91.16 C292.628,91.16 294.112,91.804 295.204,93.12 L295.204,91.44 L298.396,91.44 L298.396,111.768 L295.204,111.768 L295.204,104.32 Z M291.144,103.508 C293.636,103.508 295.428,101.492 295.428,98.72 C295.428,95.948 293.636,93.932 291.144,93.932 C288.652,93.932 286.832,95.948 286.832,98.72 C286.832,101.492 288.652,103.508 291.144,103.508 Z M312.2,106 L312.2,104.04 C311.36,105.44 309.764,106.28 307.86,106.28 C304.668,106.28 302.876,104.32 302.876,100.372 L302.876,91.44 L306.068,91.44 L306.068,99.98 C306.068,102.444 307.076,103.592 308.812,103.592 C310.996,103.592 312.2,101.772 312.2,99.56 L312.2,91.44 L315.392,91.44 L315.392,106 L312.2,106 Z M326.508,106.28 C322.028,106.28 319.004,103.172 319.004,98.664 C319.004,94.156 322.14,91.16 326.48,91.16 C330.792,91.16 333.312,94.072 333.312,98.384 L333.312,99.448 L322.056,99.448 C322.336,102.164 324.072,103.452 326.452,103.452 C328.58,103.452 329.728,102.444 330.512,101.1 L332.92,102.472 C332.136,103.872 330.4,106.28 326.508,106.28 Z M326.368,93.792 C324.38,93.792 322.644,94.856 322.14,97.18 L330.176,97.18 C329.924,94.968 328.468,93.792 326.368,93.792 Z M334.768,110.312 L339.64,101.576 L342.272,103.032 L337.372,111.712 L334.768,110.312 Z M88.032,133.84 L91.504,133.84 L85.484,154 L82.04,154 L77.924,139.468 C76.524,144.284 75.096,149.212 73.752,154 L70.308,154 L64.316,133.84 L67.76,133.84 L72.156,148.428 C73.388,144.144 75.152,138.096 76.356,133.84 L79.436,133.84 L83.664,148.428 C84.98,144.004 86.744,138.236 88.032,133.84 Z M98.392,146.02 L98.392,154 L95.2,154 L95.2,133.112 L98.392,133.112 L98.392,141.68 C99.232,140.112 100.968,139.16 103.012,139.16 C106.288,139.16 107.996,141.176 107.996,145.208 L107.996,154 L104.804,154 L104.804,145.6 C104.804,143.024 103.74,141.82 101.92,141.82 C99.652,141.82 98.392,143.696 98.392,146.02 Z M117.04,151.956 C119.504,151.956 120.708,150.304 120.708,148.344 L120.708,148.204 C120.26,148.036 119.252,147.756 117.908,147.756 C115.388,147.756 114.268,148.764 114.268,149.996 C114.268,151.284 115.472,151.956 117.04,151.956 Z M120.848,154 L120.764,152.264 C119.728,153.72 118.104,154.364 116.2,154.364 C113.288,154.364 111.132,152.852 111.132,150.108 C111.132,146.944 114.016,145.488 117.684,145.488 C119.224,145.488 120.26,145.768 120.708,145.936 L120.708,144.424 C120.708,142.604 119.42,141.736 117.796,141.736 C115.892,141.736 114.828,142.884 114.464,144.144 L111.664,143.192 C112.364,140.98 114.352,139.16 117.88,139.16 C121.296,139.16 123.9,140.868 123.9,144.704 L123.9,154 L120.848,154 Z M132.972,154 C129.948,154 129.052,152.88 129.052,149.072 L129.052,141.904 L126.448,141.904 L126.448,139.44 L129.052,139.44 L129.052,135.576 L132.244,135.576 L132.244,139.44 L136.108,139.44 L136.108,141.904 L132.244,141.904 L132.244,150.024 C132.244,150.92 132.58,151.312 133.28,151.312 C133.896,151.312 134.876,151.284 135.828,151.2 L135.828,153.804 C134.764,153.944 134.176,154 132.972,154 Z M151.676,151.956 C154.14,151.956 155.344,150.304 155.344,148.344 L155.344,148.204 C154.896,148.036 153.888,147.756 152.544,147.756 C150.024,147.756 148.904,148.764 148.904,149.996 C148.904,151.284 150.108,151.956 151.676,151.956 Z M155.484,154 L155.4,152.264 C154.364,153.72 152.74,154.364 150.836,154.364 C147.924,154.364 145.768,152.852 145.768,150.108 C145.768,146.944 148.652,145.488 152.32,145.488 C153.86,145.488 154.896,145.768 155.344,145.936 L155.344,144.424 C155.344,142.604 154.056,141.736 152.432,141.736 C150.528,141.736 149.464,142.884 149.1,144.144 L146.3,143.192 C147,140.98 148.988,139.16 152.516,139.16 C155.932,139.16 158.536,140.868 158.536,144.704 L158.536,154 L155.484,154 Z M166.208,139.44 L166.208,141.82 C166.824,140.364 168.308,139.244 170.128,139.244 C170.492,139.244 170.912,139.272 171.332,139.328 L171.332,142.464 C170.8,142.38 170.352,142.352 169.96,142.352 C166.964,142.352 166.208,144.004 166.208,146.216 L166.208,154 L163.016,154 L163.016,139.44 L166.208,139.44 Z M180.264,154.28 C175.784,154.28 172.76,151.172 172.76,146.664 C172.76,142.156 175.896,139.16 180.236,139.16 C184.548,139.16 187.068,142.072 187.068,146.384 L187.068,147.448 L175.812,147.448 C176.092,150.164 177.828,151.452 180.208,151.452 C182.336,151.452 183.484,150.444 184.268,149.1 L186.676,150.472 C185.892,151.872 184.156,154.28 180.264,154.28 Z M180.124,141.792 C178.136,141.792 176.4,142.856 175.896,145.18 L183.932,145.18 C183.68,142.968 182.224,141.792 180.124,141.792 Z M202.244,159.768 L199.108,159.768 L202.104,152.936 L196.504,139.44 L199.752,139.44 L203.728,149.324 L208.068,139.44 L211.26,139.44 L202.244,159.768 Z M212.52,146.72 C212.52,142.324 215.656,139.16 219.968,139.16 C224.28,139.16 227.444,142.352 227.444,146.72 C227.444,151.088 224.28,154.28 219.968,154.28 C215.656,154.28 212.52,151.116 212.52,146.72 Z M215.572,146.72 C215.572,149.576 217.448,151.48 219.968,151.48 C222.488,151.48 224.364,149.576 224.364,146.72 C224.364,143.864 222.488,141.96 219.968,141.96 C217.448,141.96 215.572,143.864 215.572,146.72 Z M240.128,154 L240.128,152.04 C239.288,153.44 237.692,154.28 235.788,154.28 C232.596,154.28 230.804,152.32 230.804,148.372 L230.804,139.44 L233.996,139.44 L233.996,147.98 C233.996,150.444 235.004,151.592 236.74,151.592 C238.924,151.592 240.128,149.772 240.128,147.56 L240.128,139.44 L243.32,139.44 L243.32,154 L240.128,154 Z M255.892,133.112 L259.084,133.112 L259.084,154 L255.892,154 L255.892,133.112 Z M262.724,146.72 C262.724,142.324 265.86,139.16 270.172,139.16 C274.484,139.16 277.648,142.352 277.648,146.72 C277.648,151.088 274.484,154.28 270.172,154.28 C265.86,154.28 262.724,151.116 262.724,146.72 Z M265.776,146.72 C265.776,149.576 267.652,151.48 270.172,151.48 C272.692,151.48 274.568,149.576 274.568,146.72 C274.568,143.864 272.692,141.96 270.172,141.96 C267.652,141.96 265.776,143.864 265.776,146.72 Z M280.168,146.72 C280.168,142.324 283.304,139.16 287.616,139.16 C291.928,139.16 295.092,142.352 295.092,146.72 C295.092,151.088 291.928,154.28 287.616,154.28 C283.304,154.28 280.168,151.116 280.168,146.72 Z M283.22,146.72 C283.22,149.576 285.096,151.48 287.616,151.48 C290.136,151.48 292.012,149.576 292.012,146.72 C292.012,143.864 290.136,141.96 287.616,141.96 C285.096,141.96 283.22,143.864 283.22,146.72 Z M307.748,154 L303.548,147.728 L301.924,149.492 L301.924,154 L298.732,154 L298.732,133.112 L301.924,133.112 L301.924,145.768 L307.216,139.44 L311.108,139.44 L305.648,145.404 L311.612,154 L307.748,154 Z M315.42,136.864 C314.272,136.864 313.292,135.968 313.292,134.82 C313.292,133.728 314.272,132.832 315.42,132.832 C316.568,132.832 317.548,133.728 317.548,134.82 C317.548,135.968 316.568,136.864 315.42,136.864 Z M313.824,139.44 L317.016,139.44 L317.016,154 L313.824,154 L313.824,139.44 Z M324.968,146.02 L324.968,154 L321.776,154 L321.776,139.44 L324.968,139.44 L324.968,141.512 C325.836,140.056 327.488,139.16 329.448,139.16 C332.724,139.16 334.572,141.176 334.572,145.208 L334.572,154 L331.38,154 L331.38,145.6 C331.38,143.052 330.316,141.848 328.496,141.848 C326.228,141.848 324.968,143.724 324.968,146.02 Z M345.352,151.508 C347.844,151.508 349.636,149.492 349.636,146.72 C349.636,143.948 347.844,141.932 345.352,141.932 C342.86,141.932 341.04,143.948 341.04,146.72 C341.04,149.492 342.86,151.508 345.352,151.508 Z M349.412,152.32 C348.32,153.664 346.836,154.28 345.016,154.28 C341.068,154.28 337.932,151.2 337.932,146.72 C337.932,142.24 341.068,139.16 345.016,139.16 C346.836,139.16 348.32,139.804 349.412,141.12 L349.412,139.44 L352.604,139.44 L352.604,153.58 C352.604,157.948 349.58,160.608 344.932,160.608 C340.676,160.608 338.828,158.256 338.24,157.052 L341.012,155.484 C341.236,156.212 342.552,157.808 344.932,157.808 C347.564,157.808 349.412,156.184 349.412,153.58 L349.412,152.32 Z M365.624,141.904 L363.16,141.904 L363.16,139.44 L365.624,139.44 L365.624,137.732 C365.624,134.736 366.548,132.832 370.188,132.832 C370.888,132.832 372.064,132.888 372.96,133.028 L372.96,135.632 C372.316,135.576 371.392,135.52 370.664,135.52 C369.544,135.52 368.816,135.828 368.816,136.864 L368.816,139.44 L372.372,139.44 L372.372,141.904 L368.816,141.904 L368.816,154 L365.624,154 L365.624,141.904 Z M374.22,146.72 C374.22,142.324 377.356,139.16 381.668,139.16 C385.98,139.16 389.144,142.352 389.144,146.72 C389.144,151.088 385.98,154.28 381.668,154.28 C377.356,154.28 374.22,151.116 374.22,146.72 Z M377.272,146.72 C377.272,149.576 379.148,151.48 381.668,151.48 C384.188,151.48 386.064,149.576 386.064,146.72 C386.064,143.864 384.188,141.96 381.668,141.96 C379.148,141.96 377.272,143.864 377.272,146.72 Z M396.004,139.44 L396.004,141.82 C396.62,140.364 398.104,139.244 399.924,139.244 C400.288,139.244 400.708,139.272 401.128,139.328 L401.128,142.464 C400.596,142.38 400.148,142.352 399.756,142.352 C396.76,142.352 396.004,144.004 396.004,146.216 L396.004,154 L392.812,154 L392.812,139.44 L396.004,139.44 Z M405.832,146.524 C405.832,142.1 410.704,141.988 410.704,139.02 C410.704,137.648 409.64,136.668 407.96,136.668 C406.056,136.668 404.712,137.956 404.712,139.972 L401.576,139.972 C401.576,136.388 403.956,133.896 407.96,133.896 C411.964,133.896 413.868,136.36 413.868,139.132 C413.868,143.752 408.996,143.22 408.996,146.944 L408.996,147.252 L405.832,147.252 L405.832,146.524 Z M407.54,149.52 C408.856,149.52 410.032,150.556 410.032,151.928 C410.032,153.188 408.884,154.28 407.54,154.28 C406.196,154.28 405.048,153.188 405.048,151.928 C405.048,150.556 406.224,149.52 407.54,149.52 Z" id="Welcome-to-Unique,-W" fill="#000000" opacity="0.9"></path>
                <path d="M67.5,246.5 L225.01984,246.5" id="Line" stroke="#5F1FFC" stroke-width="16" stroke-linecap="square"></path>
                <path d="M67.5,289.5 L209,289.5" id="Line-Copy-2" stroke="#C8C8C8" stroke-width="16" opacity="0.444180254" stroke-linecap="square"></path>
                <path d="M68,204 L292.505011,204" id="Line-Copy" stroke="#C8C8C8" stroke-width="16" opacity="0.444180254" stroke-linecap="square"></path>
                <rect id="Rectangle-13" fill="#D8D8D8" x="0" y="0" width="608" height="20"></rect>
                <circle id="Oval" fill="#FFFFFF" cx="14" cy="10" r="5"></circle>
                <circle id="Oval-Copy" fill="#FFFFFF" cx="29" cy="10" r="5"></circle>
                <circle id="Oval-Copy-2" fill="#FFFFFF" cx="44" cy="10" r="5"></circle>
            </g>
            <g id="Menu" opacity="0.904155344" stroke-width="1" transform="translate(673.000000, 113.000000)">
                <rect id="Rectangle-3-Copy" fill="#000000" x="0" y="0" width="30" height="357"></rect>
                <path d="M16,20 C18.7614237,20 21,17.7614237 21,15 C21,12.2385763 18.7614237,10 16,10 C13.2385763,10 11,12.2385763 11,15 C11,17.7614237 13.2385763,20 16,20 Z" id="Proflie" fill="#FFFFFF"></path>
            </g>
        </g>
    </g>
</svg>