<?xml version="1.0" encoding="UTF-8"?>
<svg width="675px" height="625px" viewBox="0 0 675 625" version="1.1" xmlns="http://www.w3.org/2000/svg" xmlns:xlink="http://www.w3.org/1999/xlink">
    <!-- Generator: Sketch 48.2 (47327) - http://www.bohemiancoding.com/sketch -->
    <title>Illustration 03</title>
    <desc>Created with Sketch.</desc>
    <defs></defs>
    <g id="Page-1" stroke="none" stroke-width="1" fill="none" fill-rule="evenodd">
        <g id="Illustration-03" transform="translate(-40.000000, -2.000000)">
            <g id="Group-2">
                <g id="Ilustration-03">
                    <rect id="Rectangle-12-Copy-2" fill="#5F1FFC" x="125" y="43" width="590" height="492"></rect>
                    <rect id="Rectangle-6-Copy-4" fill="#EAF0F9" x="40" y="271" width="420" height="317"></rect>
                    <g id="Group-Copy-2" stroke-width="1" transform="translate(278.000000, 2.000000)">
                        <polygon id="Rectangle-Copy-10" fill="#000000" points="0 14 85.3270539 14 166 103.245744 166 234 0 234"></polygon>
                        <polygon id="Fill-1" fill="#FFFFFF" points="12.834137 0 12.834137 221.226541 180.430001 221.226541 180.430001 62.8484491 117.581552 0"></polygon>
                        <polygon id="Fill-2" fill="#000000" points="118.307801 0 118.307801 62.8484491 181.15625 62.8484491"></polygon>
                        <g id="otf" transform="translate(46.000000, 98.000000)" fill="#5F1FFC">
                            <path d="M25.3114058,11.7044425 L17.2238998,31.6443281 L33.3989118,31.6443281 L25.3114058,11.7044425 Z M41.1378184,50.8870148 L36.187707,38.5465962 L14.4351046,38.5465962 L9.48499315,50.8870148 L0.979167844,50.8870148 L20.9887733,0.967581094 L29.6340383,0.967581094 L49.6436437,50.8870148 L41.1378184,50.8870148 Z M69.3046498,46.0763431 C75.4399992,46.0763431 78.437954,41.9628703 78.437954,37.0824787 L78.437954,36.7338793 C77.3224359,36.31556 74.8125203,35.6183612 71.465966,35.6183612 C65.1911769,35.6183612 62.4023817,38.1282769 62.4023817,41.1959516 C62.4023817,44.403066 65.4003365,46.0763431 69.3046498,46.0763431 Z M78.7865534,51.1658943 L78.5773937,46.8432618 C75.9977582,50.4686956 71.9540052,52.0722528 67.2130534,52.0722528 C59.9621859,52.0722528 54.5937552,48.3073793 54.5937552,41.4748311 C54.5937552,33.5964847 61.7749028,29.971051 70.908207,29.971051 C74.7428004,29.971051 77.3224359,30.6682498 78.437954,31.086569 L78.437954,27.3216956 C78.437954,22.7899034 75.2308395,20.6285871 71.1870865,20.6285871 C66.4461347,20.6285871 63.7967793,23.4871022 62.8904209,26.6244968 L55.9184329,24.2540209 C57.6614299,18.7461504 62.6115413,14.2143582 71.3962462,14.2143582 C79.9020715,14.2143582 86.3860203,18.4672709 86.3860203,28.0188943 L86.3860203,51.1658943 L78.7865534,51.1658943 Z" id="Aa"></path>
                        </g>
                    </g>
                    <g id="Group" stroke-width="1" transform="translate(125.000000, 309.000000)">
                        <rect id="Rectangle-Copy-10" fill="#000000" x="12" y="12" width="232" height="306"></rect>
                        <rect id="Rectangle-Copy-10" fill="#FFFFFF" x="0" y="0" width="232" height="306"></rect>
                        <path d="M81.732247,124.09102 L68.8584916,155.831486 L94.6060025,155.831486 L81.732247,124.09102 Z M106.924855,186.462146 L99.0452285,166.818571 L64.4192655,166.818571 L56.5396394,186.462146 L43,186.462146 L74.8514467,107 L88.6130473,107 L120.464494,186.462146 L106.924855,186.462146 Z M151.761037,178.804481 C161.527335,178.804481 166.299503,172.256622 166.299503,164.487977 L166.299503,163.933074 C164.523812,163.26719 160.528509,162.157383 155.201438,162.157383 C145.213179,162.157383 140.773953,166.152687 140.773953,171.035835 C140.773953,176.140945 145.546121,178.804481 151.761037,178.804481 Z M166.854406,186.906068 L166.521464,180.025268 C162.41518,185.796262 155.978302,188.348817 148.431618,188.348817 C136.88963,188.348817 128.34412,182.355862 128.34412,171.479758 C128.34412,158.938944 139.775127,153.167951 154.313592,153.167951 C160.417528,153.167951 164.523812,154.277757 166.299503,154.943641 L166.299503,148.950686 C166.299503,141.736944 161.194393,138.296543 154.757515,138.296543 C147.210831,138.296543 142.993566,142.84675 141.550818,147.840879 L130.452753,144.067537 C133.227269,135.300066 141.106895,128.086324 155.090457,128.086324 C168.630096,128.086324 178.951297,134.856143 178.951297,150.060492 L178.951297,186.906068 L166.854406,186.906068 Z" id="Aa" fill="#5F1FFC"></path>
                    </g>
                    <g id="Group-5" stroke-width="1" transform="translate(498.000000, 204.000000)">
                        <g id="Group-2">
                            <rect id="Rectangle-Copy-10" fill="#000000" x="0" y="20" width="157.836066" height="208.930514"></rect>
                            <rect id="Rectangle-Copy-10" fill="#FFFFFF" x="11" y="8.87613293" width="157.836066" height="208.930514"></rect>
                            <rect id="Rectangle-Copy" fill="#000000" x="100.803279" y="0" width="8.16393443" height="18.4350453"></rect>
                            <rect id="Rectangle-Copy-6" fill="#000000" x="51.8196721" y="0" width="8.16393443" height="18.4350453"></rect>
                            <rect id="Rectangle-Copy-7" fill="#000000" x="149.786885" y="0" width="8.16393443" height="18.4350453"></rect>
                            <rect id="Rectangle-Copy-4" fill="#000000" x="35.4918033" y="0" width="8.16393443" height="18.4350453"></rect>
                            <rect id="Rectangle-Copy-5" fill="#000000" x="133.459016" y="0" width="8.16393443" height="18.4350453"></rect>
                            <rect id="Rectangle-Copy-9" fill="#000000" x="84.4754098" y="0" width="8.16393443" height="18.4350453"></rect>
                            <rect id="Rectangle-Copy-2" fill="#000000" x="19.1639344" y="0" width="8.16393443" height="18.4350453"></rect>
                            <rect id="Rectangle-Copy-3" fill="#000000" x="117.131148" y="0" width="8.16393443" height="18.4350453"></rect>
                            <rect id="Rectangle-Copy-11" fill="#000000" x="68.147541" y="0" width="8.16393443" height="18.4350453"></rect>
                        </g>
                        <path d="M31.75,97.7730496 L139.162963,97.7730496" id="Line" stroke="#E7E7E7" stroke-width="12.8" stroke-linecap="square"></path>
                        <path d="M31.75,156.276596 L139.162963,156.276596" id="Line-Copy-3" stroke="#E7E7E7" stroke-width="12.8" stroke-linecap="square"></path>
                        <path d="M31.75,127.425532 L127.977282,127.425532" id="Line-Copy-2" stroke="#E7E7E7" stroke-width="12.8" stroke-linecap="square"></path>
                        <path d="M31.75,68.1205674 L107.714609,68.1205674" id="Line-Copy" stroke="#E7E7E7" stroke-width="12.8" stroke-linecap="square"></path>
                        <path d="M31.75,185.929078 L107.714609,185.929078" id="Line-Copy-4" stroke="#E7E7E7" stroke-width="12.8" stroke-linecap="square"></path>
                    </g>
                </g>
            </g>
        </g>
    </g>
</svg>