<svg xmlns="http://www.w3.org/2000/svg" xmlns:xlink="http://www.w3.org/1999/xlink" width="703" height="546" viewBox="0 0 703 546">
    <defs>
        <path id="a" d="M16 20a5 5 0 1 0 0-10 5 5 0 0 0 0 10z"/>
    </defs>
    <g fill="none" fill-rule="evenodd">
        <path fill="#5F1FFC" d="M180 0h443v515H180z"/>
        <path fill="#EAF0F9" d="M0 47h423v499H0z"/>
        <g transform="translate(95 93)">
            <path fill="#FFF" d="M0 12h608v365H0z"/>
            <path fill="#000" d="M88.032 85.84h3.472L85.484 106H82.04l-4.116-14.532c-1.4 4.816-2.828 9.744-4.172 14.532h-3.444l-5.992-20.16h3.444l4.396 14.588c1.232-4.284 2.996-10.332 4.2-14.588h3.08l4.228 14.588c1.316-4.424 3.08-10.192 4.368-14.588zm13.552 20.44c-4.48 0-7.504-3.108-7.504-7.616 0-4.508 3.136-7.504 7.476-7.504 4.312 0 6.832 2.912 6.832 7.224v1.064H97.132c.28 2.716 2.016 4.004 4.396 4.004 2.128 0 3.276-1.008 4.06-2.352l2.408 1.372c-.784 1.4-2.52 3.808-6.412 3.808zm-.14-12.488c-1.988 0-3.724 1.064-4.228 3.388h8.036c-.252-2.212-1.708-3.388-3.808-3.388zm10.5-8.68h3.192V106h-3.192V85.112zm6.832 13.608c0-4.452 3.36-7.56 7.504-7.56 3.08 0 5.264 1.596 6.664 4.032l-2.632 1.456c-.952-1.708-2.352-2.604-4.06-2.604-2.464 0-4.396 1.96-4.396 4.676s1.932 4.704 4.396 4.704c1.68 0 3.136-.896 4.088-2.632l2.576 1.484c-1.4 2.464-3.724 4.004-6.636 4.004-4.088 0-7.504-3.108-7.504-7.56zm16.492 0c0-4.396 3.136-7.56 7.448-7.56s7.476 3.192 7.476 7.56c0 4.368-3.164 7.56-7.476 7.56-4.312 0-7.448-3.164-7.448-7.56zm3.052 0c0 2.856 1.876 4.76 4.396 4.76s4.396-1.904 4.396-4.76-1.876-4.76-4.396-4.76-4.396 1.904-4.396 4.76zm18.704-.84V106h-3.192V91.44h3.192v2.016c.812-1.428 2.352-2.296 4.2-2.296 2.072 0 3.556.868 4.284 2.632.812-1.624 2.52-2.632 4.62-2.632 3.22 0 4.984 1.96 4.984 5.908V106h-3.192v-8.54c0-2.464-.952-3.612-2.604-3.612-2.1 0-3.248 1.82-3.248 4.032V106h-3.192v-8.54c0-2.464-.952-3.612-2.604-3.612-2.1 0-3.248 1.82-3.248 4.032zm28.952 8.4c-4.48 0-7.504-3.108-7.504-7.616 0-4.508 3.136-7.504 7.476-7.504 4.312 0 6.832 2.912 6.832 7.224v1.064h-11.256c.28 2.716 2.016 4.004 4.396 4.004 2.128 0 3.276-1.008 4.06-2.352l2.408 1.372c-.784 1.4-2.52 3.808-6.412 3.808zm-.14-12.488c-1.988 0-3.724 1.064-4.228 3.388h8.036c-.252-2.212-1.708-3.388-3.808-3.388zM208.796 106c-3.024 0-3.92-1.12-3.92-4.928v-7.168h-2.604V91.44h2.604v-3.864h3.192v3.864h3.864v2.464h-3.864v8.12c0 .896.336 1.288 1.036 1.288.616 0 1.596-.028 2.548-.112v2.604c-1.064.14-1.652.196-2.856.196zm4.872-7.28c0-4.396 3.136-7.56 7.448-7.56s7.476 3.192 7.476 7.56c0 4.368-3.164 7.56-7.476 7.56-4.312 0-7.448-3.164-7.448-7.56zm3.052 0c0 2.856 1.876 4.76 4.396 4.76s4.396-1.904 4.396-4.76-1.876-4.76-4.396-4.76-4.396 1.904-4.396 4.76zM252 85.84h3.192v12.852c0 4.928-2.996 7.616-7.756 7.616-4.788 0-7.644-2.688-7.644-7.616V85.84h3.192v12.824c0 2.492 1.26 4.872 4.452 4.844 3.164.028 4.564-2.352 4.564-4.844V85.84zm10.808 12.18V106h-3.192V91.44h3.192v2.072c.868-1.456 2.52-2.352 4.48-2.352 3.276 0 5.124 2.016 5.124 6.048V106h-3.192v-8.4c0-2.548-1.064-3.752-2.884-3.752-2.268 0-3.528 1.876-3.528 4.172zm15.68-9.156c-1.148 0-2.128-.896-2.128-2.044 0-1.092.98-1.988 2.128-1.988 1.148 0 2.128.896 2.128 1.988 0 1.148-.98 2.044-2.128 2.044zm-1.596 2.576h3.192V106h-3.192V91.44zm18.312 12.88c-1.092 1.344-2.576 1.96-4.396 1.96-3.948 0-7.084-3.08-7.084-7.56 0-4.48 3.136-7.56 7.084-7.56 1.82 0 3.304.644 4.396 1.96v-1.68h3.192v20.328h-3.192v-7.448zm-4.06-.812c2.492 0 4.284-2.016 4.284-4.788 0-2.772-1.792-4.788-4.284-4.788s-4.312 2.016-4.312 4.788c0 2.772 1.82 4.788 4.312 4.788zM312.2 106v-1.96c-.84 1.4-2.436 2.24-4.34 2.24-3.192 0-4.984-1.96-4.984-5.908V91.44h3.192v8.54c0 2.464 1.008 3.612 2.744 3.612 2.184 0 3.388-1.82 3.388-4.032v-8.12h3.192V106H312.2zm14.308.28c-4.48 0-7.504-3.108-7.504-7.616 0-4.508 3.136-7.504 7.476-7.504 4.312 0 6.832 2.912 6.832 7.224v1.064h-11.256c.28 2.716 2.016 4.004 4.396 4.004 2.128 0 3.276-1.008 4.06-2.352l2.408 1.372c-.784 1.4-2.52 3.808-6.412 3.808zm-.14-12.488c-1.988 0-3.724 1.064-4.228 3.388h8.036c-.252-2.212-1.708-3.388-3.808-3.388zm8.4 16.52l4.872-8.736 2.632 1.456-4.9 8.68-2.604-1.4zM88.032 133.84h3.472L85.484 154H82.04l-4.116-14.532c-1.4 4.816-2.828 9.744-4.172 14.532h-3.444l-5.992-20.16h3.444l4.396 14.588c1.232-4.284 2.996-10.332 4.2-14.588h3.08l4.228 14.588c1.316-4.424 3.08-10.192 4.368-14.588zm10.36 12.18V154H95.2v-20.888h3.192v8.568c.84-1.568 2.576-2.52 4.62-2.52 3.276 0 4.984 2.016 4.984 6.048V154h-3.192v-8.4c0-2.576-1.064-3.78-2.884-3.78-2.268 0-3.528 1.876-3.528 4.2zm18.648 5.936c2.464 0 3.668-1.652 3.668-3.612v-.14c-.448-.168-1.456-.448-2.8-.448-2.52 0-3.64 1.008-3.64 2.24 0 1.288 1.204 1.96 2.772 1.96zm3.808 2.044l-.084-1.736c-1.036 1.456-2.66 2.1-4.564 2.1-2.912 0-5.068-1.512-5.068-4.256 0-3.164 2.884-4.62 6.552-4.62 1.54 0 2.576.28 3.024.448v-1.512c0-1.82-1.288-2.688-2.912-2.688-1.904 0-2.968 1.148-3.332 2.408l-2.8-.952c.7-2.212 2.688-4.032 6.216-4.032 3.416 0 6.02 1.708 6.02 5.544V154h-3.052zm12.124 0c-3.024 0-3.92-1.12-3.92-4.928v-7.168h-2.604v-2.464h2.604v-3.864h3.192v3.864h3.864v2.464h-3.864v8.12c0 .896.336 1.288 1.036 1.288.616 0 1.596-.028 2.548-.112v2.604c-1.064.14-1.652.196-2.856.196zm18.704-2.044c2.464 0 3.668-1.652 3.668-3.612v-.14c-.448-.168-1.456-.448-2.8-.448-2.52 0-3.64 1.008-3.64 2.24 0 1.288 1.204 1.96 2.772 1.96zm3.808 2.044l-.084-1.736c-1.036 1.456-2.66 2.1-4.564 2.1-2.912 0-5.068-1.512-5.068-4.256 0-3.164 2.884-4.62 6.552-4.62 1.54 0 2.576.28 3.024.448v-1.512c0-1.82-1.288-2.688-2.912-2.688-1.904 0-2.968 1.148-3.332 2.408l-2.8-.952c.7-2.212 2.688-4.032 6.216-4.032 3.416 0 6.02 1.708 6.02 5.544V154h-3.052zm10.724-14.56v2.38a4.254 4.254 0 0 1 3.92-2.576c.364 0 .784.028 1.204.084v3.136a8.69 8.69 0 0 0-1.372-.112c-2.996 0-3.752 1.652-3.752 3.864V154h-3.192v-14.56h3.192zm14.056 14.84c-4.48 0-7.504-3.108-7.504-7.616 0-4.508 3.136-7.504 7.476-7.504 4.312 0 6.832 2.912 6.832 7.224v1.064h-11.256c.28 2.716 2.016 4.004 4.396 4.004 2.128 0 3.276-1.008 4.06-2.352l2.408 1.372c-.784 1.4-2.52 3.808-6.412 3.808zm-.14-12.488c-1.988 0-3.724 1.064-4.228 3.388h8.036c-.252-2.212-1.708-3.388-3.808-3.388zm22.12 17.976h-3.136l2.996-6.832-5.6-13.496h3.248l3.976 9.884 4.34-9.884h3.192l-9.016 20.328zm10.276-13.048c0-4.396 3.136-7.56 7.448-7.56s7.476 3.192 7.476 7.56c0 4.368-3.164 7.56-7.476 7.56-4.312 0-7.448-3.164-7.448-7.56zm3.052 0c0 2.856 1.876 4.76 4.396 4.76s4.396-1.904 4.396-4.76-1.876-4.76-4.396-4.76-4.396 1.904-4.396 4.76zm24.556 7.28v-1.96c-.84 1.4-2.436 2.24-4.34 2.24-3.192 0-4.984-1.96-4.984-5.908v-8.932h3.192v8.54c0 2.464 1.008 3.612 2.744 3.612 2.184 0 3.388-1.82 3.388-4.032v-8.12h3.192V154h-3.192zm15.764-20.888h3.192V154h-3.192v-20.888zm6.832 13.608c0-4.396 3.136-7.56 7.448-7.56s7.476 3.192 7.476 7.56c0 4.368-3.164 7.56-7.476 7.56-4.312 0-7.448-3.164-7.448-7.56zm3.052 0c0 2.856 1.876 4.76 4.396 4.76s4.396-1.904 4.396-4.76-1.876-4.76-4.396-4.76-4.396 1.904-4.396 4.76zm14.392 0c0-4.396 3.136-7.56 7.448-7.56s7.476 3.192 7.476 7.56c0 4.368-3.164 7.56-7.476 7.56-4.312 0-7.448-3.164-7.448-7.56zm3.052 0c0 2.856 1.876 4.76 4.396 4.76s4.396-1.904 4.396-4.76-1.876-4.76-4.396-4.76-4.396 1.904-4.396 4.76zm24.528 7.28l-4.2-6.272-1.624 1.764V154h-3.192v-20.888h3.192v12.656l5.292-6.328h3.892l-5.46 5.964 5.964 8.596h-3.864zm7.672-17.136c-1.148 0-2.128-.896-2.128-2.044 0-1.092.98-1.988 2.128-1.988 1.148 0 2.128.896 2.128 1.988 0 1.148-.98 2.044-2.128 2.044zm-1.596 2.576h3.192V154h-3.192v-14.56zm11.144 6.58V154h-3.192v-14.56h3.192v2.072c.868-1.456 2.52-2.352 4.48-2.352 3.276 0 5.124 2.016 5.124 6.048V154h-3.192v-8.4c0-2.548-1.064-3.752-2.884-3.752-2.268 0-3.528 1.876-3.528 4.172zm20.384 5.488c2.492 0 4.284-2.016 4.284-4.788 0-2.772-1.792-4.788-4.284-4.788s-4.312 2.016-4.312 4.788c0 2.772 1.82 4.788 4.312 4.788zm4.06.812c-1.092 1.344-2.576 1.96-4.396 1.96-3.948 0-7.084-3.08-7.084-7.56 0-4.48 3.136-7.56 7.084-7.56 1.82 0 3.304.644 4.396 1.96v-1.68h3.192v14.14c0 4.368-3.024 7.028-7.672 7.028-4.256 0-6.104-2.352-6.692-3.556l2.772-1.568c.224.728 1.54 2.324 3.92 2.324 2.632 0 4.48-1.624 4.48-4.228v-1.26zm16.212-10.416h-2.464v-2.464h2.464v-1.708c0-2.996.924-4.9 4.564-4.9.7 0 1.876.056 2.772.196v2.604a29.334 29.334 0 0 0-2.296-.112c-1.12 0-1.848.308-1.848 1.344v2.576h3.556v2.464h-3.556V154h-3.192v-12.096zm8.596 4.816c0-4.396 3.136-7.56 7.448-7.56s7.476 3.192 7.476 7.56c0 4.368-3.164 7.56-7.476 7.56-4.312 0-7.448-3.164-7.448-7.56zm3.052 0c0 2.856 1.876 4.76 4.396 4.76s4.396-1.904 4.396-4.76-1.876-4.76-4.396-4.76-4.396 1.904-4.396 4.76zm18.732-7.28v2.38a4.254 4.254 0 0 1 3.92-2.576c.364 0 .784.028 1.204.084v3.136a8.69 8.69 0 0 0-1.372-.112c-2.996 0-3.752 1.652-3.752 3.864V154h-3.192v-14.56h3.192zm9.828 7.084c0-4.424 4.872-4.536 4.872-7.504 0-1.372-1.064-2.352-2.744-2.352-1.904 0-3.248 1.288-3.248 3.304h-3.136c0-3.584 2.38-6.076 6.384-6.076 4.004 0 5.908 2.464 5.908 5.236 0 4.62-4.872 4.088-4.872 7.812v.308h-3.164v-.728zm1.708 2.996c1.316 0 2.492 1.036 2.492 2.408 0 1.26-1.148 2.352-2.492 2.352s-2.492-1.092-2.492-2.352c0-1.372 1.176-2.408 2.492-2.408z" opacity=".9"/>
            <path stroke="#5F1FFC" stroke-linecap="square" stroke-width="16" d="M67.5 246.5h157.52"/>
            <path stroke="#C8C8C8" stroke-linecap="square" stroke-width="16" d="M67.5 289.5H209M68 204h224.505" opacity=".444"/>
            <path fill="#D8D8D8" d="M0 0h608v20H0z"/>
            <circle cx="14" cy="10" r="5" fill="#FFF"/>
            <circle cx="29" cy="10" r="5" fill="#FFF"/>
            <circle cx="44" cy="10" r="5" fill="#FFF"/>
        </g>
        <g opacity=".904">
            <path fill="#000" d="M673 113h30v357h-30z"/>
            <g transform="translate(673 113)">
                <use fill="#FFF" xlink:href="#a"/>
                <path stroke="#FFF" stroke-width="2" d="M16 19a4 4 0 1 0 0-8 4 4 0 0 0 0 8z"/>
            </g>
        </g>
    </g>
</svg>
