<?xml version="1.0" encoding="UTF-8"?>
<svg width="745px" height="514px" viewBox="0 0 745 514" version="1.1" xmlns="http://www.w3.org/2000/svg" xmlns:xlink="http://www.w3.org/1999/xlink">
    <!-- Generator: Sketch 48.2 (47327) - http://www.bohemiancoding.com/sketch -->
    <desc>Created with Sketch.</desc>
    <defs>
        <rect id="path-1" x="0" y="0" width="740.744345" height="509.949"></rect>
        <filter x="-0.5%" y="-0.5%" width="100.9%" height="101.4%" filterUnits="objectBoundingBox" id="filter-2">
            <feOffset dx="0" dy="1" in="SourceAlpha" result="shadowOffsetOuter1"></feOffset>
            <feGaussianBlur stdDeviation="1" in="shadowOffsetOuter1" result="shadowBlurOuter1"></feGaussianBlur>
            <feColorMatrix values="0 0 0 0 0.454134779   0 0 0 0 0.454134779   0 0 0 0 0.454134779  0 0 0 0.4 0" type="matrix" in="shadowBlurOuter1"></feColorMatrix>
        </filter>
        <ellipse id="path-3" cx="4.11524636" cy="4.1208" rx="4.11524636" ry="4.1208"></ellipse>
        <ellipse id="path-4" cx="24.6914782" cy="4.1208" rx="4.11524636" ry="4.1208"></ellipse>
        <ellipse id="path-5" cx="44.7533042" cy="4.1208" rx="4.11524636" ry="4.1208"></ellipse>
        <ellipse id="path-6" cx="3.85804346" cy="3.86325" rx="3.85804346" ry="3.86325"></ellipse>
    </defs>
    <g id="Desktop" stroke="none" stroke-width="1" fill="none" fill-rule="evenodd" transform="translate(-347.000000, -522.000000)">
        <g id="Group-3" transform="translate(349.000000, 523.000000)">
            <g id="Group-2">
                <g stroke-width="1" fill-rule="evenodd" id="Rectangle">
                    <g>
                        <use fill="black" fill-opacity="1" filter="url(#filter-2)" xlink:href="#path-1"></use>
                        <use fill="#FFFFFF" fill-rule="evenodd" xlink:href="#path-1"></use>
                    </g>
                </g>
                <g id="Group-3" stroke-width="1" fill-rule="evenodd" transform="translate(125.515014, 217.887300)" fill="#0E0528">
                    <path d="M9.81991689,15.5113624 C11.9086837,15.5113624 13.2921527,14.6149685 13.2921527,13.2839595 L13.2921527,12.9308346 C13.2921527,11.08372 11.9086837,9.83420123 9.81991689,9.83420123 C8.30081372,9.83420123 6.2934274,9.80703778 4.77432423,9.80703778 L4.77432423,15.5113624 L9.81991689,15.5113624 Z M14.5197168,16.4550668 C16.2560487,17.4484025 17.2797981,19.1667009 17.2797981,21.3243413 L17.2797981,21.731793 C17.2797981,25.0728975 14.7027481,27.3003004 10.8236096,27.3003004 L1.51910275,27.3003004 L1.51910275,6.92771242 L4.77432382,6.92771242 C6.29342698,6.92771242 8.30081331,6.98203932 9.81991647,6.98203932 C13.861816,6.98203932 16.5473733,9.31809608 16.5473733,12.8221812 C16.5473733,14.450923 15.9149147,15.5978253 14.5197172,16.4550664 L14.5197168,16.4550668 Z M4.77432382,24.4209746 L10.8236096,24.4209746 C12.7496154,24.4209746 14.024577,23.3344366 14.024577,21.731793 L14.024577,21.4329951 C14.024577,19.6130439 12.6682349,18.3906886 10.6065949,18.3906886 L4.77432382,18.3906886 L4.77432382,24.4209746 Z M23.4376096,27.3003 L20.1823885,27.3003 L20.1823885,6.92771201 L23.4376096,6.92771201 L23.4376096,27.3003 Z M42.751927,27.3003 L39.496706,27.3003 L39.496706,22.7902591 C38.4848428,25.7558757 36.2525354,27.5719345 33.3117859,27.5719345 C29.0257449,27.5719345 26.1774264,25.1272239 26.1774264,21.4873216 L26.1774264,13.1753057 L29.4326475,13.1753057 L29.4055207,20.7267449 C29.4055207,23.1171286 31.4400338,24.7197722 34.4782401,24.7197722 C37.4893196,24.7197722 39.496706,22.5466961 39.496706,19.3142455 L39.496706,13.1753057 L42.751927,13.1753057 L42.751927,27.3003 Z M62.0324732,18.9883758 L62.037052,18.9883525 C62.064274,19.2876453 62.0662571,19.5898682 62.0662571,19.911841 L62.0662571,20.5094369 C62.0662571,20.5094369 54.0255446,20.5687848 48.717486,20.5861864 C48.7887743,23.2036346 50.6595483,24.9099159 53.7383166,24.9099159 C56.8383758,24.9099159 58.8110361,23.5522578 58.8110361,21.9219364 L62.0662571,21.9219364 C62.0662571,25.1419181 58.8742069,27.5719341 53.7925702,27.5719341 C48.8012313,27.5719341 45.6816444,24.855589 45.4917565,20.7810714 L45.4375028,19.6402065 C45.4375028,15.5928524 48.8012313,12.9036707 53.8468239,12.9036707 C58.5138118,12.9036707 61.702164,15.3066621 62.037052,18.9883525 C62.0355253,18.9883597 62.033999,18.9883674 62.0324732,18.9883758 Z M58.7664359,19.0049778 C58.4578747,16.8599803 56.5726705,15.4570351 53.8739508,15.4570351 C50.9609921,15.4570351 48.9704735,16.8780894 48.7195664,19.0567336 C51.9042902,19.0399484 55.9649478,19.0192032 58.7664359,19.0049782 L58.7664359,19.0049778 Z M68.0613077,27.3003 L64.8060866,27.3002996 L64.8060866,6.92771159 L68.0613077,6.92771159 L68.0613077,16.2074685 C69.1949896,14.1414986 71.3361313,12.9036707 74.0834666,12.9036707 C78.4508882,12.9036707 81.3534604,15.7015062 81.3534604,19.8846776 L81.3534604,20.6724176 C81.3534604,24.8012621 78.4508882,27.5719341 74.0834666,27.5719341 C71.3361313,27.5719341 69.1949896,26.3460085 68.0613077,24.303843 L68.0613077,27.3003 Z M68.0613077,19.9661679 L68.0613077,20.5909273 C68.0613077,23.1442916 70.0144403,24.8284256 72.9712661,24.8284256 C76.0637261,24.8284256 78.0711125,23.0899647 78.1253661,20.5366004 L78.1253661,20.0476583 C78.152493,17.4942939 76.0637261,15.7829965 72.9712661,15.7829965 C70.0144403,15.7829965 68.0613077,17.4671304 68.0613077,19.9661679 Z M100.634006,18.9883758 L100.638585,18.9883525 C100.665807,19.2876453 100.66779,19.5898682 100.66779,19.911841 L100.66779,20.5094369 C100.66779,20.5094369 92.6270779,20.5687848 87.3190193,20.5861864 C87.3903076,23.2036346 89.2610816,24.9099159 92.3398499,24.9099159 C95.4399091,24.9099159 97.4125694,23.5522578 97.4125694,21.9219364 L100.66779,21.9219364 C100.66779,25.1419181 97.4757402,27.5719341 92.3941036,27.5719341 C87.4027646,27.5719341 84.2831777,24.855589 84.0932898,20.7810714 L84.0390361,19.6402065 C84.0390361,15.5928524 87.4027646,12.9036707 92.4483572,12.9036707 C97.1153451,12.9036707 100.303697,15.3066621 100.638585,18.9883525 C100.637059,18.9883597 100.635532,18.9883674 100.634006,18.9883758 Z M97.3679692,19.0049778 C97.059408,16.8599803 95.1742038,15.4570351 92.4754841,15.4570351 C89.5625254,15.4570351 87.5720068,16.8780894 87.3210997,19.0567336 C90.5058235,19.0399484 94.5664811,19.0192032 97.3679692,19.0049782 L97.3679692,19.0049778 Z M115.153543,13.0938153 L115.153543,16.3534294 C111.034394,15.8378411 106.662841,16.8909657 106.662841,21.1885236 L106.662841,27.3003 L103.40762,27.3003 L103.40762,13.1753057 L106.662841,13.1753057 L106.662841,17.6228975 C107.615524,14.4316041 110.00128,12.9308346 113.417425,12.9308346 C114.448245,12.9308346 114.448245,12.9579981 115.153543,13.0938153 Z M128.961118,13.0938153 L128.961118,16.3534294 C124.84197,15.8378411 120.470417,16.8909657 120.470417,21.1885236 L120.470417,27.3003 L117.215196,27.3003 L117.215196,13.1753057 L120.470417,13.1753057 L120.470417,17.6228975 C121.4231,14.4316041 123.808856,12.9308346 127.225001,12.9308346 C128.255821,12.9308346 128.255821,12.9579981 128.961118,13.0938153 Z M143.981658,21.967436 C143.95231,17.8522939 143.908022,14.0892445 143.908022,13.1753057 L147.732907,13.1753057 C147.732907,13.1753057 147.70578,24.0406859 147.70578,28.685636 C147.70578,31.6464521 144.369178,33.6022206 139.377839,33.6022206 C134.359374,33.6022206 131.022772,31.700779 131.022772,28.8214532 L131.022772,27.6805883 L134.766276,27.6805883 L134.793403,29.4190492 C134.793403,29.9623182 136.638028,30.3426065 139.377839,30.3426065 C142.171904,30.3426065 144.016529,29.9079913 144.016529,29.2560684 C144.016529,27.8186558 144.00694,25.8146782 143.993462,23.7080385 C142.942272,25.1717774 140.818176,26.0507813 138.048624,26.0507813 C133.843964,26.0507813 131.022772,24.7197722 131.022772,22.7096768 L131.022772,13.1753057 L134.766276,13.1753057 C134.766276,18.4450151 134.766276,21.9219368 134.739149,21.8404464 C134.739149,22.3837154 136.583775,22.7640037 139.377839,22.7640037 C141.948658,22.7640037 143.715697,22.4420578 143.981657,21.967436 L143.981658,21.967436 Z" id="Blueberry"></path>
                </g>
                <g id="Group-3-Copy-3" stroke-width="1" fill-rule="evenodd" transform="translate(125.515014, 117.957900)" fill="#0E0528">
                    <path d="M13.2107722,16.3805928 C15.4894269,17.1954964 16.9000227,19.042611 16.9000227,21.514485 L16.9000227,22.0849175 C16.9000227,25.2087143 14.4586069,27.3003 10.7693564,27.3003 L1.51910317,27.3003 L1.51910317,6.92771201 L3.28234791,6.92771201 C5.15410002,6.92771201 7.64976951,6.98203891 9.52152162,6.98203891 C13.5091674,6.98203891 16.167598,8.93780736 16.167598,11.87146 L16.167598,12.1974214 C16.167598,14.098863 15.0553974,15.5656893 13.2107722,16.3805928 Z M9.52152162,15.9731411 C12.4512206,15.9731411 14.4043532,14.5063147 14.4043532,12.3060752 L14.4043532,11.9529504 C14.4043532,9.88852813 12.4512206,8.5303556 9.52152162,8.5303556 C7.64976951,8.5303556 5.15410002,8.47602869 3.28234791,8.47602869 L3.28234791,15.9731411 L9.52152162,15.9731411 Z M10.7693564,25.7519833 C13.4006601,25.7519833 15.136778,24.285157 15.136778,22.0849175 L15.136778,21.5688119 C15.136778,19.1512648 13.2921527,17.5214578 10.5523416,17.5214578 L3.28234791,17.5214578 L3.28234791,25.7519833 L10.7693564,25.7519833 Z M19.8026124,27.3003 L19.8026124,6.92771201 L21.5658571,6.92771201 L21.5658571,27.3003 L19.8026124,27.3003 Z M38.7642794,27.3003 L38.7642794,22.2207347 C37.8962205,25.5075123 35.3734242,27.5719345 31.9011884,27.5719345 C27.3710057,27.5719345 24.3327994,25.1815508 24.3327994,21.5959754 L24.3327994,13.1753057 L26.0960441,13.1753057 L26.0689173,21.1885236 C26.0689173,24.0950128 28.6459673,26.0236178 32.5251057,26.0236178 C36.26861,26.0236178 38.7642794,23.5245804 38.7642794,19.7760242 L38.7642794,13.1753057 L40.5275242,13.1753057 L40.5275242,27.3003 L38.7642794,27.3003 Z M59.4620781,22.2207347 C59.4620781,25.2087143 56.3424913,27.5719345 51.6495476,27.5719345 C46.6310818,27.5719345 43.3487339,24.9099163 43.2673533,20.9440525 L43.2402265,19.4500628 C43.2402265,15.5113624 46.6310818,12.9036712 51.7038013,12.9036712 C56.3696181,12.9036712 59.4620781,15.5113624 59.4620781,19.4500628 L59.4620781,20.2921297 C59.4620781,20.2921297 52.7617481,20.3736201 45.0305981,20.3736201 L45.0305981,20.8897256 C45.0848518,24.0406859 47.6619018,26.1322716 51.6224207,26.1322716 C55.2574176,26.1322716 57.6988334,24.3666473 57.6988334,22.1935713 L57.6988334,21.9219368 L59.4620781,21.9219368 L59.4620781,22.2207347 Z M57.6988334,19.4772262 C57.6988334,16.3534294 55.3116713,14.2890071 51.7038013,14.2890071 C47.6076481,14.2890071 44.9763444,16.3534294 45.0034712,19.5587166 C50.2932055,19.5315531 55.2031639,19.4772262 57.6988334,19.4772262 Z M62.2290341,27.3003 L62.2290341,6.92771201 L63.9922789,6.92771201 L63.9922789,17.1683329 C64.995972,14.5334782 67.4645147,12.9036712 70.7468626,12.9036712 C75.3312989,12.9036712 78.3966321,15.7015066 78.3966321,19.884678 L78.3966321,20.6452546 C78.3966321,24.8012625 75.3312989,27.5719345 70.7468626,27.5719345 C67.4645147,27.5719345 64.995972,25.9692909 63.9922789,23.3615997 L63.9922789,27.3003 L62.2290341,27.3003 Z M63.9922789,20.5909277 C63.9922789,23.8777052 66.4608215,26.0779447 70.150072,26.0779447 C74.0563373,26.0779447 76.6062605,23.8505418 76.6605142,20.5909277 L76.6605142,19.9933318 C76.687641,16.6793908 74.0563373,14.4519878 70.150072,14.4519878 C66.4608215,14.4519878 63.9922789,16.6522273 63.9922789,19.9661683 L63.9922789,20.5909277 Z M97.331186,22.2207347 C97.331186,25.2087143 94.2115992,27.5719345 89.5186555,27.5719345 C84.5001896,27.5719345 81.2178417,24.9099163 81.1364612,20.9440525 L81.1093344,19.4500628 C81.1093344,15.5113624 84.5001896,12.9036712 89.5729091,12.9036712 C94.238726,12.9036712 97.331186,15.5113624 97.331186,19.4500628 L97.331186,20.2921297 C97.331186,20.2921297 90.630856,20.3736201 82.8997059,20.3736201 L82.8997059,20.8897256 C82.9539596,24.0406859 85.5310096,26.1322716 89.4915286,26.1322716 C93.1265255,26.1322716 95.5679413,24.3666473 95.5679413,22.1935713 L95.5679413,21.9219368 L97.331186,21.9219368 L97.331186,22.2207347 Z M95.5679413,19.4772262 C95.5679413,16.3534294 93.1807792,14.2890071 89.5729091,14.2890071 C85.476756,14.2890071 82.8454523,16.3534294 82.8725791,19.5587166 C88.1623133,19.5315531 93.0722718,19.4772262 95.5679413,19.4772262 Z M111.816938,15.0495838 C111.816938,15.1039107 110.514849,14.6692954 109.212761,14.6964589 C105.360749,14.7507858 101.861387,16.6250639 101.861387,21.1885236 L101.861387,27.3003 L100.098142,27.3003 L100.098142,13.1753057 L101.861387,13.1753057 L101.861387,18.5808323 C102.648065,14.6964589 105.360749,12.9036712 109.402649,12.9036712 C110.840372,12.9036712 111.816938,13.2024691 111.816938,13.1753057 L111.816938,15.0495838 Z M125.624514,15.0495838 C125.624514,15.1039107 124.322425,14.6692954 123.020337,14.6964589 C119.168325,14.7507858 115.668963,16.6250639 115.668963,21.1885236 L115.668963,27.3003 L113.905718,27.3003 L113.905718,13.1753057 L115.668963,13.1753057 L115.668963,18.5808323 C116.455641,14.6964589 119.168325,12.9036712 123.210225,12.9036712 C124.647947,12.9036712 125.624514,13.2024691 125.624514,13.1753057 L125.624514,15.0495838 Z M141.954886,22.8454941 C141.954886,18.3363613 141.927759,14.1260264 141.927759,13.1753057 L143.989399,13.1753057 L143.962272,30.2339527 C143.962272,32.244048 140.707051,33.6022206 135.851346,33.6022206 C130.968515,33.6022206 127.713294,32.2983749 127.713294,30.315443 L127.713294,28.5498187 L129.747807,28.5498187 L129.747807,30.6414044 C129.747807,31.3476541 132.189223,31.8365963 135.851346,31.8365963 C139.540597,31.8365963 141.982013,31.3204907 141.982013,30.5599141 C141.982013,28.8214532 141.982013,26.3224158 141.954886,23.7690514 C141.0597,25.1815508 138.564031,26.0507813 135.227429,26.0507813 C130.724373,26.0507813 127.713294,24.9099163 127.713294,23.1714555 L127.713294,13.1753057 L129.72068,13.1753057 L129.72068,22.7096768 C129.72068,23.6332342 132.21635,24.2579935 135.959854,24.2579935 C139.404963,24.2579935 141.737871,23.6875611 141.954886,22.8454941 Z" id="Blueberry"></path>
                </g>
                <g id="Group" stroke-width="1" fill-rule="evenodd" transform="translate(113.169275, 293.607000)" stroke="#5F1FFC">
                    <rect id="Rectangle-6-Copy-4" stroke-width="1.85436" x="0.92718" y="0.92718" width="390.122856" height="84.16734"></rect>
                </g>
                <g id="Group-3-Copy-2" stroke-width="1" fill-rule="evenodd" transform="translate(125.515014, 316.786500)" fill="#0E0528">
                    <path d="M15.3266659,16.3534294 C16.9000227,17.4942943 17.6595743,19.1512648 17.6595743,21.3786678 C17.6595743,24.9370798 14.9468901,27.3003 10.8778637,27.3003 L1.49197632,27.3003 L1.49197632,6.92771201 L6.40193477,6.92771201 C7.5141353,6.92771201 9.00611162,6.98203891 10.1183122,6.98203891 C14.2958459,6.98203891 16.9271496,9.23660531 16.9271496,12.6592001 C16.9271496,14.1531899 16.3574859,15.4298721 15.3266659,16.3534294 Z M10.1183122,14.9952569 C11.4204006,14.9952569 12.044318,14.098863 12.044318,12.7406904 C12.044318,11.87146 11.2847664,11.2738641 10.1183122,11.2738641 C9.00611162,11.2738641 7.5141353,11.2195372 6.40193477,11.2195372 L6.40193477,14.9952569 L10.1183122,14.9952569 Z M10.8778637,23.0084748 C12.044318,23.0084748 12.7767427,22.356552 12.7767427,21.3243409 C12.7767427,20.1019856 11.9358106,19.2870821 10.660849,19.2870821 L6.40193477,19.2870821 L6.40193477,23.0084748 L10.8778637,23.0084748 Z M20.5350378,27.3003 L20.5350378,6.92771201 L25.4178694,6.92771201 L25.4178694,27.3003 L20.5350378,27.3003 Z M40.2291326,27.3003 L40.2291326,23.4974169 C39.1711857,26.0507813 37.2451799,27.5719345 34.8037641,27.5719345 C30.7889915,27.5719345 28.130561,24.6926087 28.130561,20.4007835 L28.130561,13.1753057 L33.0133926,13.1753057 L32.9862657,19.2870821 C32.9862657,21.6774657 34.3968615,23.2801093 36.539882,23.2801093 C38.7642831,23.2801093 40.2291326,21.5959754 40.2291326,19.0969379 L40.2291326,13.1753057 L45.1119642,13.1753057 L45.1119642,27.3003 L40.2291326,27.3003 Z M64.8060704,21.3786678 C64.8060704,24.9099163 61.4965957,27.5719345 56.3153688,27.5719345 C51.2155225,27.5719345 47.9331746,24.828426 47.8246672,20.7267449 L47.7975404,19.7216973 C47.7975404,15.6200162 51.2426493,12.9036712 56.3967493,12.9036712 C61.442342,12.9036712 64.8060704,15.5928528 64.8060704,19.7760242 L64.8060704,20.2378028 L52.7074988,20.3192932 L52.7074988,20.6180911 C52.7617525,22.4108789 54.1180946,23.6060707 56.2339883,23.6060707 C58.4855162,23.6060707 59.9232388,22.5466961 59.9232388,21.3786678 L64.8060704,21.3786678 Z M59.9232388,19.5587166 C59.8418583,17.8474192 58.4583894,16.7337177 56.4238762,16.7337177 C54.1723483,16.7337177 52.6261183,17.8474192 52.680372,19.58588 C55.0404072,19.58588 57.6988378,19.5587166 59.9232388,19.5587166 Z M67.5459003,27.3003 L67.5459003,6.92771201 L72.4287319,6.92771201 L72.4287319,15.3755452 C73.5680593,13.8272285 75.3855577,12.9036712 77.6099588,12.9036712 C81.7332388,12.9036712 84.5001767,15.7829969 84.5001767,20.1019856 L84.5001767,20.672418 C84.5001767,24.8012625 81.7332388,27.5719345 77.6099588,27.5719345 C75.3855577,27.5719345 73.5680593,26.6755406 72.4287319,25.1272239 L72.4287319,27.3003 L67.5459003,27.3003 Z M72.4287319,20.5909277 C72.4287319,22.3293885 73.8393277,23.4702535 75.9552214,23.4702535 C78.2338761,23.4702535 79.6444719,22.2207347 79.6444719,20.3464566 C79.6715988,18.4721785 78.1796224,17.2226598 75.9552214,17.2226598 C73.8393277,17.2226598 72.4287319,18.3091978 72.4287319,19.9390049 L72.4287319,20.5909277 Z M104.194283,21.3786678 C104.194283,24.9099163 100.884808,27.5719345 95.7035813,27.5719345 C90.603735,27.5719345 87.3213871,24.828426 87.2128797,20.7267449 L87.1857528,19.7216973 C87.1857528,15.6200162 90.6308618,12.9036712 95.7849618,12.9036712 C100.830554,12.9036712 104.194283,15.5928528 104.194283,19.7760242 L104.194283,20.2378028 L92.0957113,20.3192932 L92.0957113,20.6180911 C92.149965,22.4108789 93.5063071,23.6060707 95.6222008,23.6060707 C97.8737287,23.6060707 99.3114513,22.5466961 99.3114513,21.3786678 L104.194283,21.3786678 Z M99.3114513,19.5587166 C99.2300708,17.8474192 97.8466018,16.7337177 95.8120887,16.7337177 C93.5605608,16.7337177 92.0143308,17.8474192 92.0685844,19.58588 C94.4286197,19.58588 97.0870503,19.5587166 99.3114513,19.5587166 Z M118.81567,17.956073 C115.397688,17.5214578 111.816944,18.4450151 111.816944,22.3022251 L111.816944,27.3003 L106.934113,27.3003 L106.934113,13.1753057 L111.816944,13.1753057 L111.816944,17.2769867 C112.820638,14.343334 114.882278,12.9036712 117.703469,12.9036712 C118.246006,12.9036712 118.408767,12.9579981 118.81567,13.0666519 L118.81567,17.956073 Z M132.75888,17.956073 C129.340898,17.5214578 125.760155,18.4450151 125.760155,22.3022251 L125.760155,27.3003 L120.877323,27.3003 L120.877323,13.1753057 L125.760155,13.1753057 L125.760155,17.2769867 C126.763848,14.343334 128.825488,12.9036712 131.646679,12.9036712 C132.189216,12.9036712 132.351977,12.9579981 132.75888,13.0666519 L132.75888,17.956073 Z M146.376568,20.6180911 C146.322314,17.0868426 146.295187,14.0173726 146.295187,13.1753057 L152.018951,13.1753057 C152.018951,13.1753057 151.964697,22.8454941 151.964697,26.9743386 C151.964697,30.9402024 148.546715,33.6022206 143.392615,33.6022206 C138.238515,33.6022206 134.793406,31.0488562 134.793406,27.1916462 L134.793406,26.7298675 L140.408663,26.7298675 L140.462916,28.0880401 C140.462916,28.4683284 141.629371,28.7127994 143.392615,28.7127994 C145.210114,28.7127994 146.403695,28.3596746 146.403695,27.843569 C146.403695,26.7298675 146.403695,25.2358778 146.376568,23.6332342 C145.318621,25.1543874 143.555376,26.0507813 141.330975,26.0507813 C137.42471,26.0507813 134.820533,24.0950128 134.820533,21.1613602 C134.793406,21.0798698 134.793406,13.3111229 134.793406,13.3111229 L134.793406,13.1753057 L140.43579,13.1753057 C140.43579,17.2769867 140.43579,19.9661683 140.408663,19.884678 C140.408663,20.6180911 141.575117,21.1070333 143.311235,21.1070333 C144.965972,21.1070333 146.132426,20.9168891 146.376568,20.6180911 Z" id="Blueberry"></path>
                </g>
                <g stroke-width="1" fill-rule="evenodd" transform="translate(598.253940, 200.373900)" stroke="#5F1FFB">
                    <g id="arrow-01" stroke-width="1.5453">
                        <ellipse id="Oval-2" cx="15.4321739" cy="15.453" rx="15.4321739" ry="15.453"></ellipse>
                        <polyline id="Stroke-10" stroke-linecap="square" points="16.4609854 19.5738 12.3457391 15.4528057 16.4609854 11.3322"></polyline>
                    </g>
                    <g id="arrow-01-copy" transform="translate(15.432174, 61.812000) rotate(-180.000000) translate(-15.432174, -61.812000) translate(0.000000, 46.359000)" stroke-width="1.5453">
                        <ellipse id="Oval-2" cx="15.4321739" cy="15.453" rx="15.4321739" ry="15.453"></ellipse>
                        <polyline id="Stroke-10" stroke-linecap="square" points="16.4609854 19.5738 12.3457391 15.4528057 16.4609854 11.3322"></polyline>
                    </g>
                </g>
                <g id="Group-9" stroke-width="1" fill-rule="evenodd" transform="translate(453.191506, 62.327100)">
                    <g id="Oval-6">
                        <use fill="#5F1FFB" fill-rule="evenodd" xlink:href="#path-3"></use>
                        <ellipse stroke="#FFFFFF" stroke-width="0.5151" cx="4.11524636" cy="4.1208" rx="4.37279636" ry="4.37835"></ellipse>
                    </g>
                    <g id="Oval-6-Copy">
                        <use fill="#5F1FFB" fill-rule="evenodd" xlink:href="#path-4"></use>
                        <ellipse stroke="#FFFFFF" stroke-width="0.5151" cx="24.6914782" cy="4.1208" rx="4.37279636" ry="4.37835"></ellipse>
                    </g>
                    <g id="Oval-6-Copy-2">
                        <use fill="#5F1FFB" fill-rule="evenodd" xlink:href="#path-5"></use>
                        <ellipse stroke="#FFFFFF" stroke-width="0.5151" cx="44.7533042" cy="4.1208" rx="4.37279636" ry="4.37835"></ellipse>
                    </g>
                </g>
                <rect id="Rectangle-3-Copy" fill="#000000" fill-rule="evenodd" x="715.024055" y="0" width="25.7202898" height="509.949"></rect>
                <g id="Group-Copy-6" stroke-width="1" fill-rule="evenodd" transform="translate(724.283360, 10.817100)">
                    <g id="Oval-Copy-5">
                        <use fill="#FFFFFF" fill-rule="evenodd" xlink:href="#path-6"></use>
                        <ellipse stroke="#FFFFFF" stroke-width="1.0302" cx="3.85804346" cy="3.86325" rx="3.34294346" ry="3.34815"></ellipse>
                    </g>
                </g>
                <path d="M13.6317536,14.16525 L53.2409998,14.16525" id="Logo" stroke="#6029E0" stroke-width="7.2114" stroke-linecap="square"></path>
                <path d="M358.026433,457.15125 L494.601172,457.15125" id="Logo" stroke="#000000" stroke-width="7.2114" stroke-linecap="square"></path>
                <path d="M128.344246,357.22185 L147.891666,357.22185" id="Line-Lang" stroke="#575757" stroke-width="3.6057" opacity="0.444180254" stroke-linecap="square"></path>
                <path d="M128.344246,158.90835 L147.891666,158.90835" id="Line-Lang-Copy" stroke="#575757" stroke-width="3.6057" opacity="0.444180254" stroke-linecap="square"></path>
                <path d="M128.344246,68.76585 L169.49671,68.76585" id="Line-Lang-Copy-2" stroke="#6029E0" stroke-width="3.6057" stroke-linecap="square"></path>
                <path d="M128.344246,258.83775 L158.184216,258.83775" id="Line-Lang" stroke="#575757" stroke-width="3.6057" opacity="0.444180254" stroke-linecap="square"></path>
            </g>
        </g>
    </g>
</svg>