<svg xmlns="http://www.w3.org/2000/svg" viewBox="0 0 68.2 143.3"><defs><style>.cls-1{fill:none;}.cls-2{fill:#5a5a5a;}.cls-3{fill:#7c7d80;}.cls-4{fill:#444;}.cls-5{fill:#7b7c7f;}</style></defs><title>Fichier 2</title><g id="Calque_2" data-name="Calque 2"><g id="Calque_1-2" data-name="Calque 1"><g id="allDevices"><rect class="cls-1" x="4.1" y="19" width="59.8" height="105.3"/><path class="cls-2" d="M56.1,0H12.2A12.14,12.14,0,0,0,0,12V131.3a12.14,12.14,0,0,0,12.2,12H56a12.14,12.14,0,0,0,12.2-12V12A12.12,12.12,0,0,0,56.1,0Zm7.8,124.3H4.1V19H63.9Z"/><circle class="cls-3" cx="34.1" cy="9.8" r="1.4"/><path class="cls-4" d="M34,130.2a4.12,4.12,0,0,0-4.1,3.7v-.5a4.2,4.2,0,1,1,8.4,0v.5A4.58,4.58,0,0,0,34,130.2Z"/><path class="cls-5" d="M34,130.2a3.72,3.72,0,1,1-4.1,3.7A4.12,4.12,0,0,1,34,130.2Z"/></g></g></g></svg>