<svg xmlns="http://www.w3.org/2000/svg" viewBox="0 0 201 263.6"><defs><style>.cls-1{fill:#5a5a5a;}.cls-2{fill:#7c7d80;}.cls-3{fill:#444;}.cls-4{fill:#7b7c7f;}</style></defs><title>Fichier 1</title><g id="Calque_2" data-name="Calque 2"><g id="Calque_1-2" data-name="Calque 1"><g id="allDevices"><path class="cls-1" d="M189,0H12A12,12,0,0,0,0,12V251.6a12,12,0,0,0,12,12H189a12,12,0,0,0,12-12V12A12,12,0,0,0,189,0Zm-6,82.3V243.6H18V20.5H183Z"/><circle class="cls-2" cx="100.2" cy="9.7" r="1.4"/><path class="cls-3" d="M100.5,249.3a4.12,4.12,0,0,0-4.1,3.7v-.5a4.2,4.2,0,0,1,8.4,0v.5A4.49,4.49,0,0,0,100.5,249.3Z"/><path class="cls-4" d="M100.5,249.3a3.72,3.72,0,1,1-4.1,3.7A4.2,4.2,0,0,1,100.5,249.3Z"/></g></g></g></svg>