<svg xmlns="http://www.w3.org/2000/svg" width="12" height="15" viewBox="0 0 12 15">
    <path fill="#0D0D0D" fill-rule="evenodd" d="M5.543 12.43c-1.588 0-2.799-.672-2.799-1.99 0-1.265 1.104-2.26 3.633-2.26 1.399 0 2.421.403 2.825.591v.054c0 1.964-1.184 3.605-3.66 3.605zm3.793 1.83H12V5.327C12 1.641 9.552 0 6.35 0 3.04 0 1.184 1.749.51 3.874l2.422.915c.376-1.291 1.426-2.448 3.336-2.448 1.641 0 2.933.86 2.933 2.717v1.507c-.404-.135-1.453-.43-3.04-.43C2.716 6.135 0 7.507 0 10.52c0 2.637 2.072 4.09 4.843 4.09 1.83 0 3.417-.646 4.413-2.072l.08 1.722z"/>
</svg>
