<?xml version="1.0" encoding="UTF-8"?>
<svg width="668px" height="530px" viewBox="0 0 668 530" version="1.1" xmlns="http://www.w3.org/2000/svg" xmlns:xlink="http://www.w3.org/1999/xlink">
    <!-- Generator: Sketch 48.2 (47327) - http://www.bohemiancoding.com/sketch -->
    <g id="Group" stroke="none" stroke-width="1" fill="none" fill-rule="evenodd">
        <g>
            <rect id="background" fill="#EAF0F9" x="0" y="0" width="653" height="468"></rect>
            <g id="Selection">
                <rect class="hiw2" x="122" y="79" width="356" height="83" fill="#fff"></rect>
                <rect stroke-opacity="0.823539402" stroke="#EAF0F9" stroke-width="1" x="122.5" y="79.5" width="355" height="82"></rect>
            </g>
            <g id="Selection-Copy-2">
                <rect fill="#6029E0" id="path-2" x="122" y="325" width="356" height="83"></rect>
                <rect stroke="#5F1FFC" stroke-width="3" x="123.5" y="326.5" width="353" height="80"></rect>
            </g>
            <g id="Selection-Copy">
                <rect fill="#FFFFFF" id="path-3" x="122" y="201" width="356" height="83"></rect>
                <rect stroke="#EAF0F9" stroke-width="1" x="122.5" y="201.5" width="355" height="82"></rect>
            </g>
            <g id="Selection-Copy-3">
                <rect fill="#fff" id="path-4" x="122" y="447" width="356" height="83"></rect>
                <rect stroke="#EAF0F9" stroke-width="1" x="122.5" y="447.5" width="355" height="82"></rect>
            </g>
            <rect id="Rectangle-3-Copy" fill="#000000" x="638" y="40" width="30" height="490"></rect>
            <path d="M654,60 C656.761424,60 659,57.7614237 659,55 C659,52.2385763 656.761424,50 654,50 C651.238576,50 649,52.2385763 649,55 C649,57.7614237 651.238576,60 654,60 Z" id="Proflie" fill="#FFFFFF"></path>
            <circle id="Oval-6" fill="#6029E0" cx="373" cy="44" r="5"></circle>
            <circle id="Oval-6-Copy" fill="#6029E0" cx="398" cy="44" r="5"></circle>
            <circle id="Oval-6-Copy-2" fill="#6029E0" cx="423" cy="44" r="5"></circle>
            <circle id="Oval-6-Copy-3" fill="#FFFFFF" cx="448" cy="44" r="5"></circle>
            <circle id="Oval-6-Copy-4" fill="#FFFFFF" cx="473" cy="44" r="5"></circle>
        </g>
    </g>
</svg>
