<?xml version="1.0" encoding="utf-8"?>
<!-- Generator: Adobe Illustrator 17.0.0, SVG Export Plug-In . SVG Version: 6.00 Build 0)  -->
<!DOCTYPE svg PUBLIC "-//W3C//DTD SVG 1.1//EN" "http://www.w3.org/Graphics/SVG/1.1/DTD/svg11.dtd">
<svg version="1.1" id="Layer_1" xmlns="http://www.w3.org/2000/svg" xmlns:xlink="http://www.w3.org/1999/xlink" x="0px" y="0px"
	 width="564px" height="436px" viewBox="118 82 564 436" enable-background="new 118 82 564 436" xml:space="preserve">
<title>Step 02 Copy</title>
<desc>Created with Sketch.</desc>
<g id="Dribbble">
	<g id="Step-02-Copy">
		<g id="Group-3" transform="translate(118.000000, 82.000000)">
			<g id="Group-2">
				<g id="Group">
					<rect id="Rectangle-12" fill="#5F1FFC" width="472" height="372"/>
					<rect id="Rectangle-12-Copy" x="41.6" y="46.4" fill="#EEF4FF" width="512" height="360"/>
					<g id="Selection">
						<g>
							<rect id="path-1" x="132" y="120" fill="#FFFFFF" width="284" height="64"/>
						</g>
						
							<rect x="132.4" y="120.4" fill="none" stroke="#EAF0F9" stroke-width="0.8" stroke-opacity="0.8235" width="283.2" height="63.2"/>
					</g>
					<g id="Selection-Copy-2">
						<g>
							<rect id="path-2" x="132" y="288" fill="#5F1FFC" width="284" height="64"/>
						</g>
						<rect x="132.4" y="288.4" fill="none" stroke="#EEF4FF" stroke-width="0.8" width="283.2" height="63.2"/>
					</g>
					<g id="Selection-Copy">
						<g>
							<rect id="path-3" x="132" y="204" fill="#FFFFFF" width="284" height="64"/>
						</g>
						
							<rect x="132.4" y="204.4" fill="none" stroke="#EAF0F9" stroke-width="0.8" stroke-opacity="0.8235" width="283.2" height="63.2"/>
					</g>
					<g id="Selection-Copy-3">
						<g>
							<rect id="path-4" x="132" y="372" fill="#FFFFFF" width="284" height="64"/>
						</g>
						<rect x="132.8" y="372.8" fill="none" stroke="#EEF4FF" stroke-width="1.6" width="282.4" height="62.4"/>
					</g>
					<g id="Menu" transform="translate(544.000000, 68.000000)" opacity="0.9042">
						<rect id="Rectangle-3-Copy" width="20" height="284"/>
						<path id="Proflie" fill="#FFFFFF" d="M10.4,15.91c2.209,0,4-1.781,4-3.978s-1.791-3.978-4-3.978s-4,1.781-4,3.978
							S8.191,15.91,10.4,15.91z"/>
					</g>
					<g id="Group-9-Copy" transform="translate(132.000000, 87.200000)">
						<circle id="Oval-6" fill="#5F1FFB" cx="5.2" cy="5.2" r="5.2"/>
						<circle id="Oval-6-Copy-5" fill="#5F1FFB" cx="28.4" cy="5.2" r="5.2"/>
						<circle id="Oval-6-Copy-2" fill="#5F1FFB" cx="51.6" cy="5.2" r="5.2"/>
						<circle id="Oval-6-Copy-3" fill="#FFFFFF" cx="74.8" cy="5.2" r="5.2"/>
						<circle id="Oval-6-Copy-4" fill="#FFFFFF" cx="98" cy="5.2" r="5.2"/>
					</g>
				</g>
			</g>
		</g>
	</g>
</g>
</svg>
